<?xml version="1.0" encoding="utf-8"?>
<!-- Generator: Adobe Illustrator 15.1.0, SVG Export Plug-In . SVG Version: 6.00 Build 0)  -->
<!DOCTYPE svg PUBLIC "-//W3C//DTD SVG 1.1//EN" "http://www.w3.org/Graphics/SVG/1.1/DTD/svg11.dtd">
<svg version="1.1" id="Layer_1" xmlns="http://www.w3.org/2000/svg" xmlns:xlink="http://www.w3.org/1999/xlink" x="0px" y="0px"
	 width="1061px" height="679.998px" viewBox="-104.021 -76.965 1061 679.998"
	 enable-background="new -104.021 -76.965 1061 679.998" xml:space="preserve">
<circle fill="none" stroke="#BA00FF" stroke-width="3" stroke-linecap="round" stroke-dasharray="12" cx="836.62" cy="406.28" r="439.576"/>
<g>
	
		<circle fill="none" stroke="#0074FF" stroke-width="2" stroke-linecap="round" stroke-dasharray="12.1212,12.1212" cx="99.458" cy="406.207" r="165.9"/>
</g>
<g>
	<g>
		
			<line fill="none" stroke="#00B52F" stroke-width="4" stroke-linecap="round" x1="518.979" y1="99.998" x2="168.048" y2="236.986"/>
		<g>
			<polygon fill="#00B52F" points="141.74,247.256 172.899,217.636 170.015,236.218 184.724,247.929 			"/>
		</g>
	</g>
</g>
<g id="path5773">
	<g>
		
			<line fill="none" stroke="#FF3939" stroke-width="4" stroke-linecap="round" x1="99.188" y1="406.054" x2="808.107" y2="406.054"/>
		<g>
			<polygon fill="#FF3939" points="836.35,406.054 796.553,422.316 805.996,406.054 796.553,389.796 			"/>
		</g>
	</g>
</g>
<g id="path5801">
	<g>
		
			<line fill="none" stroke="#BA00FF" stroke-width="4" stroke-linecap="round" x1="540.949" y1="118.579" x2="836.35" y2="406.054"/>
		<g>
			<polygon fill="#BA00FF" points="520.709,98.882 537.889,138.292 542.462,120.052 560.568,114.986 			"/>
		</g>
	</g>
</g>
<g id="path6332">
	<g>
		
			<line fill="none" stroke="#0074FF" stroke-width="4" stroke-linecap="round" x1="99.188" y1="406.054" x2="135.932" y2="273.358"/>
		<g>
			<polygon fill="#0074FF" points="143.469,246.14 148.521,288.833 135.369,275.393 117.181,280.155 			"/>
		</g>
	</g>
</g>
<g>
	<path fill="none" d="M-113.085,358.035"/>
</g>
<g>
	<path fill="none" d="M-97.556,99.035"/>
</g>
<g>
	<path fill="none" d="M837.889,337.15"/>
</g>
<g>
	<path fill="none" d="M360.035,337.15"/>
</g>
<g>
	<path fill="none" d="M608.71-493.37"/>
</g>
<g>
	<path fill="none" d="M837.889,365.15"/>
</g>
<g>
	<path fill="none" d="M837.889,528.15"/>
</g>
<g>
	<path fill="none" d="M-66.442,528.15"/>
</g>
<g>
	<path fill="none" d="M837.889,483.928"/>
</g>
<g>
	<path fill="none" d="M265.358,483.928"/>
</g>
<text transform="matrix(1 0 0 1 306.8916 154.2495)"><tspan x="0" y="0" fill="#00B52F" font-family="'MyriadPro-Semibold'" font-size="24">L</tspan><tspan x="11.832" y="4" fill="#00B52F" font-family="'MyriadPro-Semibold'" font-size="18">2</tspan></text>
<line fill="none" stroke="#231F20" stroke-width="2" stroke-linecap="round" stroke-dasharray="6,6" x1="99.458" y1="406.207" x2="203.979" y2="406.28"/>
<line fill="none" stroke="#231F20" stroke-width="2" stroke-linecap="round" stroke-dasharray="6,6" x1="837.888" y1="406.169" x2="942.409" y2="406.243"/>
<line fill="none" stroke="#231F20" stroke-width="2" stroke-linecap="round" stroke-dasharray="6,6" x1="837.888" y1="406.169" x2="765.659" y2="337.15"/>
<line fill="none" stroke="#231F20" stroke-width="2" stroke-linecap="round" stroke-dasharray="6,6" x1="126.41" y1="308.877" x2="99.458" y2="406.207"/>
<line fill="none" stroke="#231F20" stroke-width="2" stroke-linecap="round" stroke-dasharray="6,6" x1="520.98" y1="98.998" x2="625.501" y2="99.071"/>
<line fill="none" stroke="#231F20" stroke-width="2" stroke-linecap="round" stroke-dasharray="6,6" x1="419.734" y1="138.397" x2="519.804" y2="99.108"/>
<g>
	<g>
		<path fill="none" stroke="#231F20" stroke-width="2" stroke-linecap="round" stroke-dasharray="6,6" d="M136.624,324.741
			c30.891,14.116,52.356,45.284,52.356,81.466"/>
		<g>
			<polygon fill="#231F20" points="123.354,319.91 139.096,334.547 137.551,325.272 144.841,319.336 			"/>
		</g>
	</g>
</g>
<g>
	<g>
		<path fill="none" stroke="#231F20" stroke-width="2" stroke-linecap="round" stroke-dasharray="6,6" d="M784.427,335.609
			c14.854-11.272,33.376-17.961,53.461-17.961c48.889,0,88.521,39.633,88.521,88.521"/>
		<g>
			<polygon fill="#231F20" points="773.888,345.013 794.226,338.055 785.322,335.034 783.534,325.804 			"/>
		</g>
	</g>
</g>
<g>
	<g>
		<path fill="none" stroke="#231F20" stroke-width="2" stroke-linecap="round" stroke-dasharray="6,6" d="M434.391,117.52
			c-1.267-5.962-1.933-12.146-1.933-18.485c0-48.889,39.632-88.521,88.521-88.521c48.889,0,88.521,39.632,88.521,88.521"/>
		<g>
			<polygon fill="#231F20" points="438.426,131.053 440.745,109.683 434.235,116.466 425.118,114.173 			"/>
		</g>
	</g>
</g>
<text transform="matrix(1 0 0 1 80.8921 333.1616)"><tspan x="0" y="0" fill="#0074FF" font-family="'MyriadPro-Semibold'" font-size="24">L</tspan><tspan x="11.832" y="4" fill="#0074FF" font-family="'MyriadPro-Semibold'" font-size="18">1</tspan></text>
<text transform="matrix(1 0 0 1 436.3755 444.687)"><tspan x="0" y="0" fill="#FF3939" font-family="'MyriadPro-Semibold'" font-size="24">L</tspan><tspan x="11.832" y="4" fill="#FF3939" font-family="'MyriadPro-Semibold'" font-size="18">4</tspan></text>
<text transform="matrix(1 0 0 1 704.8916 246.2925)"><tspan x="0" y="0" fill="#BA00FF" font-family="'MyriadPro-Semibold'" font-size="24">L</tspan><tspan x="11.832" y="4" fill="#BA00FF" font-family="'MyriadPro-Semibold'" font-size="18">3</tspan></text>
<text transform="matrix(1 0 0 1 143.7397 371.6597)"><tspan x="0" y="0" fill="#0074FF" font-family="'MyriadPro-Semibold'" font-size="24">θ</tspan><tspan x="13.295" y="4" fill="#0074FF" font-family="'MyriadPro-Semibold'" font-size="18">1</tspan></text>
<text transform="matrix(1 0 0 1 848.5732 365.1499)"><tspan x="0" y="0" fill="#BA00FF" font-family="'MyriadPro-Semibold'" font-size="24">θ</tspan><tspan x="13.296" y="4" fill="#BA00FF" font-family="'MyriadPro-Semibold'" font-size="18">3</tspan></text>
<text transform="matrix(1 0 0 1 504.8921 70.7827)"><tspan x="0" y="0" fill="#00B52F" font-family="'MyriadPro-Semibold'" font-size="24">θ</tspan><tspan x="13.296" y="4" fill="#00B52F" font-family="'MyriadPro-Semibold'" font-size="18">2</tspan></text>
<polygon fill="#FFFF00" stroke="#231F20" stroke-width="2" points="143.74,233.605 148.175,242.592 158.092,244.034 
	150.916,251.029 152.61,260.906 143.74,256.243 134.87,260.906 136.563,251.029 129.387,244.034 139.305,242.592 "/>
</svg>
