<?xml version="1.0" encoding="utf-8"?>
<!-- Generator: Adobe Illustrator 15.1.0, SVG Export Plug-In . SVG Version: 6.00 Build 0)  -->
<!DOCTYPE svg PUBLIC "-//W3C//DTD SVG 1.1//EN" "http://www.w3.org/Graphics/SVG/1.1/DTD/svg11.dtd">
<svg version="1.1" id="Layer_1" xmlns="http://www.w3.org/2000/svg" xmlns:xlink="http://www.w3.org/1999/xlink" x="0px" y="0px"
	 width="1061px" height="679.998px" viewBox="-104.021 -76.965 1061 679.998"
	 enable-background="new -104.021 -76.965 1061 679.998" xml:space="preserve">
<circle fill="none" stroke="#BA00FF" stroke-width="3" stroke-linecap="round" stroke-dasharray="12" cx="836.62" cy="406.28" r="439.576"/>
<g>
	
		<circle fill="none" stroke="#0074FF" stroke-width="2" stroke-linecap="round" stroke-dasharray="12.1212,12.1212" cx="99.458" cy="406.207" r="165.9"/>
</g>
<g id="path5773">
	<g>
		
			<line fill="none" stroke="#FF3939" stroke-width="4" stroke-linecap="round" x1="99.458" y1="406.207" x2="808.378" y2="406.207"/>
		<g>
			<polygon fill="#FF3939" points="836.62,406.207 796.823,422.468 806.267,406.207 796.823,389.949 			"/>
		</g>
	</g>
</g>
<g id="path5801">
	<g>
		<line fill="none" stroke="#BA00FF" stroke-width="4" stroke-linecap="round" x1="541.22" y1="118.731" x2="836.62" y2="406.207"/>
		<g>
			<polygon fill="#BA00FF" points="520.979,99.035 538.159,138.444 542.732,120.204 560.839,115.139 			"/>
		</g>
	</g>
</g>
<circle fill="#FFFFFF" stroke="#231F20" stroke-miterlimit="10" cx="99.833" cy="406.207" r="5.176"/>
<g>
	<path fill="none" d="M-113.085,358.035"/>
</g>
<g>
	<path fill="none" d="M-97.556,99.035"/>
</g>
<g>
	<path fill="none" d="M837.889,337.15"/>
</g>
<g>
	<path fill="none" d="M360.035,337.15"/>
</g>
<g>
	<path fill="none" d="M608.71-493.37"/>
</g>
<g>
	<g>
		
			<line fill="none" stroke="#00B52F" stroke-width="4" stroke-linecap="round" x1="494.671" y1="109.304" x2="143.74" y2="246.292"/>
		<g>
			<polygon fill="#00B52F" points="520.979,99.035 477.994,98.358 492.704,110.072 489.819,128.651 			"/>
		</g>
	</g>
</g>
<g>
	<path fill="none" d="M837.889,365.15"/>
</g>
<g>
	<path fill="none" d="M837.889,528.15"/>
</g>
<g>
	<path fill="none" d="M-66.442,528.15"/>
</g>
<g>
	<path fill="none" d="M837.889,483.928"/>
</g>
<g>
	<path fill="none" d="M265.358,483.928"/>
</g>
<g id="path6332">
	<g>
		<line fill="none" stroke="#0074FF" stroke-width="4" stroke-linecap="round" x1="99.458" y1="406.207" x2="136.203" y2="273.51"/>
		<g>
			<polygon fill="#0074FF" points="143.74,246.292 148.791,288.986 135.639,275.545 117.451,280.307 			"/>
		</g>
	</g>
</g>
<text transform="matrix(1 0 0 1 306.8916 154.2495)"><tspan x="0" y="0" fill="#00B52F" font-family="'MyriadPro-Semibold'" font-size="24">L</tspan><tspan x="11.832" y="4" fill="#00B52F" font-family="'MyriadPro-Semibold'" font-size="18">2</tspan></text>
<line fill="none" stroke="#231F20" stroke-width="2" stroke-linecap="round" stroke-dasharray="6,6" x1="99.458" y1="406.207" x2="203.979" y2="406.28"/>
<line fill="none" stroke="#231F20" stroke-width="2" stroke-linecap="round" stroke-dasharray="6,6" x1="837.888" y1="406.169" x2="942.409" y2="406.243"/>
<line fill="none" stroke="#231F20" stroke-width="2" stroke-linecap="round" stroke-dasharray="6,6" x1="837.888" y1="406.169" x2="765.659" y2="337.15"/>
<line fill="none" stroke="#231F20" stroke-width="2" stroke-linecap="round" stroke-dasharray="6,6" x1="126.41" y1="308.877" x2="99.458" y2="406.207"/>
<g>
	<g>
		<path fill="none" stroke="#231F20" stroke-width="2" stroke-linecap="round" stroke-dasharray="6,6" d="M136.624,324.741
			c30.891,14.116,52.356,45.284,52.356,81.466"/>
		<g>
			<polygon fill="#231F20" points="123.354,319.91 139.096,334.547 137.551,325.272 144.841,319.336 			"/>
		</g>
	</g>
</g>
<g>
	<g>
		<path fill="none" stroke="#231F20" stroke-width="2" stroke-linecap="round" stroke-dasharray="6,6" d="M784.427,335.609
			c14.854-11.272,33.376-17.961,53.461-17.961c48.889,0,88.521,39.633,88.521,88.521"/>
		<g>
			<polygon fill="#231F20" points="773.888,345.013 794.226,338.055 785.322,335.034 783.534,325.804 			"/>
		</g>
	</g>
</g>
<text transform="matrix(1 0 0 1 80.8921 333.1616)"><tspan x="0" y="0" fill="#0074FF" font-family="'MyriadPro-Semibold'" font-size="24">L</tspan><tspan x="11.832" y="4" fill="#0074FF" font-family="'MyriadPro-Semibold'" font-size="18">1</tspan></text>
<text transform="matrix(1 0 0 1 436.3755 444.687)"><tspan x="0" y="0" fill="#FF3939" font-family="'MyriadPro-Semibold'" font-size="24">L</tspan><tspan x="11.832" y="4" fill="#FF3939" font-family="'MyriadPro-Semibold'" font-size="18">4</tspan></text>
<text transform="matrix(1 0 0 1 704.8916 246.2925)"><tspan x="0" y="0" fill="#BA00FF" font-family="'MyriadPro-Semibold'" font-size="24">L</tspan><tspan x="11.832" y="4" fill="#BA00FF" font-family="'MyriadPro-Semibold'" font-size="18">3</tspan></text>
<text transform="matrix(1 0 0 1 143.7397 371.6597)"><tspan x="0" y="0" fill="#0074FF" font-family="'MyriadPro-Semibold'" font-size="24">θ</tspan><tspan x="13.295" y="4" fill="#0074FF" font-family="'MyriadPro-Semibold'" font-size="18">1</tspan></text>
<text transform="matrix(1 0 0 1 848.5732 365.1499)"><tspan x="0" y="0" fill="#BA00FF" font-family="'MyriadPro-Semibold'" font-size="24">θ</tspan><tspan x="13.296" y="4" fill="#BA00FF" font-family="'MyriadPro-Semibold'" font-size="18">3</tspan></text>
<line fill="none" stroke="#231F20" stroke-width="2" stroke-linecap="round" stroke-dasharray="6,6" x1="143.797" y1="246.256" x2="248.318" y2="246.329"/>
<line fill="none" stroke="#231F20" stroke-width="2" stroke-linecap="round" stroke-dasharray="6,6" x1="143.797" y1="246.448" x2="243.867" y2="207.159"/>
<g>
	<g>
		<path fill="none" stroke="#231F20" stroke-width="2" stroke-linecap="round" stroke-dasharray="6,6" d="M234.979,246.256
			c0-7.392-0.88-14.579-2.54-21.461"/>
		<g>
			<polygon fill="#231F20" points="228.065,211.364 241.779,227.917 232.608,225.845 226.265,232.784 			"/>
		</g>
	</g>
</g>
<text transform="matrix(1 0 0 1 248.3193 234.7827)"><tspan x="0" y="0" fill="#00B52F" font-family="'MyriadPro-Semibold'" font-size="24">θ</tspan><tspan x="13.296" y="4" fill="#00B52F" font-family="'MyriadPro-Semibold'" font-size="18">2</tspan></text>
<polygon fill="#FFFF00" stroke="#231F20" stroke-width="2" points="520.979,85.384 525.414,94.371 535.332,95.812 528.155,102.808 
	529.85,112.685 520.979,108.021 512.109,112.685 513.803,102.808 506.627,95.812 516.544,94.371 "/>
</svg>
