<?xml version="1.0" encoding="utf-8"?>
<!-- Generator: Adobe Illustrator 15.1.0, SVG Export Plug-In . SVG Version: 6.00 Build 0)  -->
<!DOCTYPE svg PUBLIC "-//W3C//DTD SVG 1.1//EN" "http://www.w3.org/Graphics/SVG/1.1/DTD/svg11.dtd">
<svg version="1.1" id="Layer_1" xmlns="http://www.w3.org/2000/svg" xmlns:xlink="http://www.w3.org/1999/xlink" x="0px" y="0px"
	 width="953px" height="471px" viewBox="3.979 31.035 953 471" enable-background="new 3.979 31.035 953 471" xml:space="preserve">
<g id="g5751" transform="translate(224.0108,2.6171874e-6)">
	<path id="path5753" fill="none" stroke="#010101" stroke-linecap="square" d="M613.498,379.472
		c14.627,0,26.399,12.775,26.399,28.646v35.432h-52.797v-35.432C587.102,392.25,598.875,379.472,613.498,379.472z"/>
	<g id="g5757">
		<path id="path5759" fill="none" stroke="#F58020" stroke-width="3" d="M595.933,443.681l-27.189,27.189"/>
		<path id="path5761" fill="none" stroke="#F58020" stroke-width="3" d="M615.878,443.681l-27.193,27.189"/>
		<path id="path5763" fill="none" stroke="#F58020" stroke-width="3" d="M638.158,443.681l-27.19,27.189"/>
		<path id="path5765" fill="none" stroke="#F58020" stroke-width="3" d="M659.805,443.681l-27.188,27.189"/>
		<path id="path5767" fill="none" stroke="#F58020" stroke-width="3" d="M658.783,466.986l-3.885,3.885"/>
		<path id="path5769" fill="none" stroke="#F58020" stroke-width="3" d="M573.54,443.687l-9.459,9.451"/>
	</g>
	<path id="path5771" fill="none" stroke="#010101" d="M563.773,443.568h97.671"/>
</g>
<path fill="#FF7171" stroke="#231F20" d="M836.62,421.207H99.458c-8.284,0-15-6.716-15-15s6.716-15,15-15H836.62
	c8.284,0,15,6.716,15,15S844.904,421.207,836.62,421.207z"/>
<g id="g5729" transform="translate(164.10387,1.7187404e-8)">
	<path id="path5731" fill="none" stroke="#010101" stroke-linecap="square" d="M-65.646,380.472
		c14.624,0,26.399,12.775,26.399,28.646v35.432h-52.798v-35.432C-92.046,393.25-80.273,380.472-65.646,380.472z"/>
	<g id="g5735">
		<path id="path5737" fill="none" stroke="#F58020" stroke-width="3" d="M-83.212,444.681l-27.189,27.189"/>
		<path id="path5739" fill="none" stroke="#F58020" stroke-width="3" d="M-63.271,444.681l-27.189,27.189"/>
		<path id="path5741" fill="none" stroke="#F58020" stroke-width="3" d="M-40.987,444.681l-27.19,27.189"/>
		<path id="path5743" fill="none" stroke="#F58020" stroke-width="3" d="M-19.34,444.681l-27.192,27.189"/>
		<path id="path5745" fill="none" stroke="#F58020" stroke-width="3" d="M-20.364,467.986l-3.885,3.885"/>
		<path id="path5747" fill="none" stroke="#F58020" stroke-width="3" d="M-105.608,444.687l-9.457,9.451"/>
	</g>
	<path id="path5749" fill="none" stroke="#010101" d="M-115.375,444.568H-17.7"/>
</g>
<path fill="#BA00FF" stroke="#231F20" d="M836.619,417.207c-2.766,0-5.532-1.036-7.671-3.117L513.308,106.918
	c-4.354-4.237-4.448-11.201-0.211-15.555c4.237-4.354,11.2-4.449,15.555-0.211l315.641,307.172
	c4.354,4.236,4.448,11.201,0.211,15.555C842.348,416.093,839.484,417.207,836.619,417.207z"/>
<circle fill="#FFFFFF" stroke="#231F20" stroke-miterlimit="10" cx="837.307" cy="406.28" r="5.177"/>
<circle fill="#FFFFFF" stroke="#231F20" stroke-miterlimit="10" cx="99.833" cy="406.207" r="5.176"/>
<circle fill="#FFFFFF" stroke="#231F20" stroke-miterlimit="10" cx="837.51" cy="406.207" r="5.176"/>
<g>
	<path fill="none" d="M-113.085,358.035"/>
</g>
<g>
	<path fill="none" d="M-97.556,99.035"/>
</g>
<g>
	<path fill="none" d="M837.889,337.15"/>
</g>
<g>
	<path fill="none" d="M360.035,337.15"/>
</g>
<g>
	<path fill="none" d="M608.71-493.37"/>
</g>
<path fill="#00B52F" stroke="#231F20" d="M143.742,253.794c-3,0-5.832-1.812-6.989-4.775c-1.506-3.858,0.401-8.208,4.26-9.714
	l377.24-147.258c3.854-1.507,8.208,0.4,9.713,4.26c1.506,3.858-0.4,8.208-4.259,9.714l-377.24,147.258
	C145.571,253.629,144.649,253.794,143.742,253.794z"/>
<g>
	<path fill="none" d="M837.889,365.15"/>
</g>
<g>
	<path fill="none" d="M837.889,528.15"/>
</g>
<g>
	<path fill="none" d="M-66.442,528.15"/>
</g>
<g>
	<path fill="none" d="M837.889,483.928"/>
</g>
<g>
	<path fill="none" d="M265.358,483.928"/>
</g>
<path fill="#0074FF" stroke="#231F20" d="M99.462,413.708c-0.663,0-1.336-0.089-2.006-0.274c-3.992-1.104-6.332-5.237-5.227-9.229
	l44.282-159.914c1.105-3.992,5.241-6.33,9.229-5.227c3.992,1.105,6.332,5.238,5.227,9.229l-44.282,159.915
	C105.766,411.53,102.75,413.708,99.462,413.708z"/>
<circle fill="#FFFFFF" stroke="#231F20" stroke-miterlimit="10" cx="99.833" cy="406.207" r="5.176"/>
<circle fill="#FFFFFF" stroke="#231F20" stroke-miterlimit="10" cx="143.797" cy="246.292" r="5.176"/>
<circle fill="#FFFFFF" stroke="#231F20" stroke-miterlimit="10" cx="520.979" cy="99.035" r="5.176"/>
<text transform="matrix(1 0 0 1 306.8916 154.2495)"><tspan x="0" y="0" fill="#00B52F" font-family="'MyriadPro-Semibold'" font-size="24">L</tspan><tspan x="11.832" y="4" fill="#00B52F" font-family="'MyriadPro-Semibold'" font-size="18">2</tspan></text>
<line fill="none" stroke="#231F20" stroke-width="2" stroke-linecap="round" stroke-dasharray="6,6" x1="99.458" y1="406.207" x2="203.979" y2="406.28"/>
<line fill="none" stroke="#231F20" stroke-width="2" stroke-linecap="round" stroke-dasharray="6,6" x1="837.888" y1="406.169" x2="942.409" y2="406.243"/>
<line fill="none" stroke="#231F20" stroke-width="2" stroke-linecap="round" stroke-dasharray="6,6" x1="837.888" y1="406.169" x2="765.659" y2="337.15"/>
<line fill="none" stroke="#231F20" stroke-width="2" stroke-linecap="round" stroke-dasharray="6,6" x1="126.41" y1="308.877" x2="99.458" y2="406.207"/>
<g>
	<g>
		<path fill="none" stroke="#231F20" stroke-width="2" stroke-linecap="round" stroke-dasharray="6,6" d="M136.624,324.741
			c30.891,14.116,52.356,45.284,52.356,81.466"/>
		<g>
			<polygon fill="#231F20" points="123.354,319.91 139.096,334.547 137.551,325.272 144.841,319.336 			"/>
		</g>
	</g>
</g>
<g>
	<g>
		<path fill="none" stroke="#231F20" stroke-width="2" stroke-linecap="round" stroke-dasharray="6,6" d="M784.427,335.609
			c14.854-11.272,33.376-17.961,53.461-17.961c48.889,0,88.521,39.633,88.521,88.521"/>
		<g>
			<polygon fill="#231F20" points="773.888,345.013 794.226,338.055 785.322,335.034 783.534,325.804 			"/>
		</g>
	</g>
</g>
<text transform="matrix(1 0 0 1 80.8921 333.1616)"><tspan x="0" y="0" fill="#0074FF" font-family="'MyriadPro-Semibold'" font-size="24">L</tspan><tspan x="11.832" y="4" fill="#0074FF" font-family="'MyriadPro-Semibold'" font-size="18">1</tspan></text>
<text transform="matrix(1 0 0 1 436.3755 444.687)"><tspan x="0" y="0" fill="#FF7171" font-family="'MyriadPro-Semibold'" font-size="24">L</tspan><tspan x="11.832" y="4" fill="#FF7171" font-family="'MyriadPro-Semibold'" font-size="18">4</tspan></text>
<text transform="matrix(1 0 0 1 704.8916 246.2925)"><tspan x="0" y="0" fill="#BA00FF" font-family="'MyriadPro-Semibold'" font-size="24">L</tspan><tspan x="11.832" y="4" fill="#BA00FF" font-family="'MyriadPro-Semibold'" font-size="18">3</tspan></text>
<text transform="matrix(1 0 0 1 143.7397 371.6597)"><tspan x="0" y="0" fill="#0074FF" font-family="'MyriadPro-Semibold'" font-size="24">θ</tspan><tspan x="13.295" y="4" fill="#0074FF" font-family="'MyriadPro-Semibold'" font-size="18">1</tspan></text>
<text transform="matrix(1 0 0 1 848.5732 365.1499)"><tspan x="0" y="0" fill="#BA00FF" font-family="'MyriadPro-Semibold'" font-size="24">θ</tspan><tspan x="13.296" y="4" fill="#BA00FF" font-family="'MyriadPro-Semibold'" font-size="18">3</tspan></text>
<text transform="matrix(1 0 0 1 72.0591 223.0347)"><tspan x="0" y="0" font-family="'MyriadPro-Regular'" font-size="28">(x</tspan><tspan x="20.916" y="5" font-family="'MyriadPro-Regular'" font-size="16">2</tspan><tspan x="29.124" y="0" font-family="'MyriadPro-Regular'" font-size="28">, y</tspan><tspan x="54.043" y="5" font-family="'MyriadPro-Regular'" font-size="16">2</tspan><tspan x="62.25" y="0" font-family="'MyriadPro-Regular'" font-size="28">)</tspan></text>
<text transform="matrix(1 0 0 1 468.0391 72.0347)"><tspan x="0" y="0" font-family="'MyriadPro-Regular'" font-size="28">(x</tspan><tspan x="20.916" y="5" font-family="'MyriadPro-Regular'" font-size="16">3</tspan><tspan x="29.124" y="0" font-family="'MyriadPro-Regular'" font-size="28">, y</tspan><tspan x="54.043" y="5" font-family="'MyriadPro-Regular'" font-size="16">3</tspan><tspan x="62.25" y="0" font-family="'MyriadPro-Regular'" font-size="28">)</tspan></text>
<text transform="matrix(1 0 0 1 870.2217 434.0347)"><tspan x="0" y="0" font-family="'MyriadPro-Regular'" font-size="28">(x</tspan><tspan x="20.916" y="5" font-family="'MyriadPro-Regular'" font-size="16">4</tspan><tspan x="29.123" y="0" font-family="'MyriadPro-Regular'" font-size="28">, y</tspan><tspan x="54.043" y="5" font-family="'MyriadPro-Regular'" font-size="16">4</tspan><tspan x="62.25" y="0" font-family="'MyriadPro-Regular'" font-size="28">)</tspan></text>
<text transform="matrix(1 0 0 1 25.9795 371.6597)"><tspan x="0" y="0" font-family="'MyriadPro-Regular'" font-size="28">(x</tspan><tspan x="20.916" y="5" font-family="'MyriadPro-Regular'" font-size="16">1</tspan><tspan x="29.124" y="0" font-family="'MyriadPro-Regular'" font-size="28">, y</tspan><tspan x="54.043" y="5" font-family="'MyriadPro-Regular'" font-size="16">1</tspan><tspan x="62.25" y="0" font-family="'MyriadPro-Regular'" font-size="28">)</tspan></text>
</svg>
