<?xml version="1.0" encoding="utf-8"?>
<!-- Generator: Adobe Illustrator 15.1.0, SVG Export Plug-In . SVG Version: 6.00 Build 0)  -->
<!DOCTYPE svg PUBLIC "-//W3C//DTD SVG 1.1//EN" "http://www.w3.org/Graphics/SVG/1.1/DTD/svg11.dtd">
<svg version="1.1" id="Layer_1" xmlns="http://www.w3.org/2000/svg" xmlns:xlink="http://www.w3.org/1999/xlink" x="0px" y="0px"
	 width="626.968px" height="523.474px" viewBox="36.095 -30.856 626.968 523.474"
	 enable-background="new 36.095 -30.856 626.968 523.474" xml:space="preserve">
<line fill="none" stroke="#BA00FF" stroke-width="2" stroke-miterlimit="10" x1="520.98" y1="98.998" x2="520.98" y2="406.28"/>
<line fill="none" stroke="#FF0049" stroke-width="2" x1="520.98" y1="406.28" x2="99.458" y2="406.28"/>
<polyline fill="none" stroke="#231F20" points="498.479,406.28 498.479,384.295 520.98,384.295 "/>
<g>
	<g>
		<line fill="none" stroke="#231F20" x1="445.941" y1="406.28" x2="448.941" y2="406.28"/>
		<line fill="none" stroke="#231F20" stroke-dasharray="6.2763,6.2763" x1="455.217" y1="406.28" x2="514.842" y2="406.28"/>
		<polyline fill="none" stroke="#231F20" points="517.98,406.28 520.98,406.28 520.98,403.28 		"/>
		<line fill="none" stroke="#231F20" stroke-dasharray="6.4655,6.4655" x1="520.98" y1="396.814" x2="520.98" y2="335.393"/>
		<line fill="none" stroke="#231F20" x1="520.98" y1="332.16" x2="520.98" y2="329.16"/>
	</g>
</g>
<g id="g5751" transform="translate(224.0108,2.6171874e-6)">
	<g id="g5757">
		<path id="path5759" fill="none" stroke="#F58020" stroke-width="3" d="M280.293,119.99l-27.189,14.647"/>
		<path id="path5761" fill="none" stroke="#F58020" stroke-width="3" d="M300.238,119.99l-27.193,14.647"/>
		<path id="path5763" fill="none" stroke="#F58020" stroke-width="3" d="M322.518,119.99l-27.19,14.647"/>
		<path id="path5765" fill="none" stroke="#F58020" stroke-width="3" d="M344.165,119.99l-27.188,14.647"/>
		<path id="path5767" fill="none" stroke="#F58020" stroke-width="3" d="M343.143,132.544l-3.885,2.093"/>
		<path id="path5769" fill="none" stroke="#F58020" stroke-width="3" d="M257.9,119.994l-9.459,5.091"/>
	</g>
	<path id="path5771" fill="none" stroke="#010101" stroke-width="2" d="M248.134,119.929h97.671"/>
</g>
<rect x="487.479" y="78.287" fill="#EA73FF" stroke="#231F20" stroke-width="2" stroke-miterlimit="10" width="67" height="41.643"/>
<g>
	
		<circle fill="none" stroke="#0074FF" stroke-width="2" stroke-linecap="round" stroke-dasharray="12.1212,12.1212" cx="99.458" cy="406.207" r="165.9"/>
</g>
<g id="g5729" transform="translate(164.10387,1.7187404e-8)">
	<path id="path5731" fill="none" stroke="#010101" stroke-linecap="square" d="M-65.646,380.472
		c14.624,0,26.399,12.775,26.399,28.646v35.432h-52.798v-35.432C-92.046,393.25-80.273,380.472-65.646,380.472z"/>
	<g id="g5735">
		<path id="path5737" fill="none" stroke="#F58020" stroke-width="3" d="M-83.212,444.681l-27.189,27.189"/>
		<path id="path5739" fill="none" stroke="#F58020" stroke-width="3" d="M-63.271,444.681l-27.189,27.189"/>
		<path id="path5741" fill="none" stroke="#F58020" stroke-width="3" d="M-40.987,444.681l-27.19,27.189"/>
		<path id="path5743" fill="none" stroke="#F58020" stroke-width="3" d="M-19.34,444.681l-27.192,27.189"/>
		<path id="path5745" fill="none" stroke="#F58020" stroke-width="3" d="M-20.364,467.986l-3.885,3.885"/>
		<path id="path5747" fill="none" stroke="#F58020" stroke-width="3" d="M-105.608,444.687l-9.457,9.451"/>
	</g>
	<path id="path5749" fill="none" stroke="#010101" d="M-115.375,444.568H-17.7"/>
</g>
<circle fill="#FFFFFF" stroke="#231F20" stroke-miterlimit="10" cx="99.833" cy="406.207" r="5.176"/>
<g>
	<path fill="none" d="M-113.085,358.035"/>
</g>
<g>
	<path fill="none" d="M-97.556,99.035"/>
</g>
<g>
	<path fill="none" d="M360.035,337.15"/>
</g>
<g>
	<path fill="none" d="M608.71-493.37"/>
</g>
<path fill="#00B52F" stroke="#231F20" d="M143.771,253.758c-3,0-5.832-1.812-6.989-4.775c-1.506-3.858,0.401-8.208,4.26-9.714
	l377.24-147.258c3.854-1.507,8.208,0.4,9.713,4.26c1.506,3.858-0.4,8.208-4.259,9.714l-377.24,147.258
	C145.601,253.593,144.678,253.758,143.771,253.758z"/>
<g>
	<path fill="none" d="M837.889,365.15"/>
</g>
<g>
	<path fill="none" d="M837.889,528.15"/>
</g>
<g>
	<path fill="none" d="M-66.442,528.15"/>
</g>
<g>
	<path fill="none" d="M522.249,160.29"/>
</g>
<g>
	<path fill="none" d="M265.358,483.928"/>
</g>
<path fill="#0074FF" stroke="#231F20" d="M99.491,413.69c-0.663,0-1.336-0.089-2.006-0.274c-3.992-1.104-6.332-5.237-5.227-9.229
	l44.282-159.914c1.105-3.992,5.241-6.33,9.229-5.227c3.992,1.105,6.332,5.238,5.227,9.229L106.715,408.19
	C105.795,411.511,102.778,413.69,99.491,413.69z"/>
<circle fill="#FFFFFF" stroke="#231F20" stroke-miterlimit="10" cx="99.833" cy="406.207" r="5.176"/>
<circle fill="#FFFFFF" stroke="#231F20" stroke-miterlimit="10" cx="143.797" cy="246.292" r="5.176"/>
<circle fill="#FFFFFF" stroke="#231F20" stroke-miterlimit="10" cx="520.979" cy="99.035" r="5.176"/>
<text transform="matrix(1 0 0 1 306.8916 154.2495)"><tspan x="0" y="0" fill="#00B52F" font-family="'MyriadPro-Semibold'" font-size="24">L</tspan><tspan x="11.832" y="4" fill="#00B52F" font-family="'MyriadPro-Semibold'" font-size="18">2</tspan></text>
<line fill="none" stroke="#231F20" stroke-width="2" stroke-linecap="round" stroke-dasharray="6,6" x1="99.458" y1="406.207" x2="203.979" y2="406.28"/>
<line fill="none" stroke="#231F20" stroke-width="2" stroke-linecap="round" stroke-dasharray="6,6" x1="126.41" y1="308.877" x2="99.458" y2="406.207"/>
<line fill="none" stroke="#231F20" stroke-width="2" stroke-linecap="round" stroke-dasharray="6,6" x1="520.98" y1="98.998" x2="625.501" y2="99.071"/>
<line fill="none" stroke="#231F20" stroke-width="2" stroke-linecap="round" stroke-dasharray="6,6" x1="419.734" y1="138.397" x2="519.804" y2="99.108"/>
<g>
	<g>
		<path fill="none" stroke="#231F20" stroke-width="2" stroke-linecap="round" stroke-dasharray="6,6" d="M136.624,324.741
			c30.891,14.116,52.356,45.284,52.356,81.466"/>
		<g>
			<polygon fill="#231F20" points="123.354,319.91 139.096,334.547 137.551,325.272 144.841,319.336 			"/>
		</g>
	</g>
</g>
<g>
	<g>
		<path fill="none" stroke="#231F20" stroke-width="2" stroke-linecap="round" stroke-dasharray="6,6" d="M434.391,117.52
			c-1.267-5.962-1.933-12.146-1.933-18.485c0-48.889,39.632-88.521,88.521-88.521c48.889,0,88.521,39.632,88.521,88.521"/>
		<g>
			<polygon fill="#231F20" points="438.426,131.053 440.745,109.683 434.235,116.466 425.118,114.173 			"/>
		</g>
	</g>
</g>
<text transform="matrix(1 0 0 1 80.8921 333.1616)"><tspan x="0" y="0" fill="#0074FF" font-family="'MyriadPro-Semibold'" font-size="24">L</tspan><tspan x="11.832" y="4" fill="#0074FF" font-family="'MyriadPro-Semibold'" font-size="18">1</tspan></text>
<text transform="matrix(1 0 0 1 306.8916 443.5503)"><tspan x="0" y="0" fill="#FF3939" font-family="'MyriadPro-Semibold'" font-size="24">L</tspan><tspan x="11.832" y="4" fill="#FF3939" font-family="'MyriadPro-Semibold'" font-size="18">4</tspan></text>
<text transform="matrix(1 0 0 1 536.8921 263.0337)"><tspan x="0" y="0" fill="#BA00FF" font-family="'MyriadPro-Semibold'" font-size="24">L</tspan><tspan x="11.832" y="4" fill="#BA00FF" font-family="'MyriadPro-Semibold'" font-size="18">3</tspan></text>
<text transform="matrix(1 0 0 1 143.7397 371.6597)"><tspan x="0" y="0" fill="#0074FF" font-family="'MyriadPro-Semibold'" font-size="24">θ</tspan><tspan x="13.295" y="4" fill="#0074FF" font-family="'MyriadPro-Semibold'" font-size="18">1</tspan></text>
<text transform="matrix(1 0 0 1 504.8921 70.7827)"><tspan x="0" y="0" fill="#00B52F" font-family="'MyriadPro-Semibold'" font-size="24">θ</tspan><tspan x="13.296" y="4" fill="#00B52F" font-family="'MyriadPro-Semibold'" font-size="18">2</tspan></text>
<line fill="none" stroke="#231F20" stroke-dasharray="6,6" x1="1282.532" y1="-324.842" x2="1282.532" y2="-329.342"/>
</svg>
