<?xml version="1.0" encoding="utf-8"?>
<!-- Generator: Adobe Illustrator 15.1.0, SVG Export Plug-In . SVG Version: 6.00 Build 0)  -->
<!DOCTYPE svg PUBLIC "-//W3C//DTD SVG 1.1//EN" "http://www.w3.org/Graphics/SVG/1.1/DTD/svg11.dtd">
<svg version="1.1" id="Layer_1" xmlns="http://www.w3.org/2000/svg" xmlns:xlink="http://www.w3.org/1999/xlink" x="0px" y="0px"
	 width="595.333px" height="475.999px" viewBox="50.313 -8.63 595.333 475.999"
	 enable-background="new 50.313 -8.63 595.333 475.999" xml:space="preserve">
<circle fill="#231F20" cx="143.797" cy="246.292" r="5.176"/>
<g>
	<g>
		<line fill="none" stroke="#0074FF" stroke-width="2" x1="139.973" y1="259.901" x2="99.458" y2="406.28"/>
		<g>
			<polygon fill="#0074FF" points="143.74,246.292 130.596,263.3 139.691,260.919 146.266,267.638 			"/>
		</g>
	</g>
</g>
<g>
	<g>
		<line fill="none" stroke="#00B52F" stroke-width="2" x1="156.894" y1="241.156" x2="520.98" y2="98.998"/>
		<g>
			<polygon fill="#00B52F" points="143.74,246.292 165.232,246.629 157.877,240.772 159.319,231.482 			"/>
		</g>
	</g>
</g>
<g>
	<g>
		<line fill="none" stroke="#BA00FF" stroke-width="2" stroke-miterlimit="10" x1="520.98" y1="113.119" x2="520.98" y2="406.28"/>
		<g>
			<polygon fill="#BA00FF" points="520.98,98.998 512.849,118.896 520.98,114.175 529.109,118.896 			"/>
		</g>
	</g>
</g>
<g>
	<g>
		<line fill="none" stroke="#FF0049" stroke-width="2" x1="506.859" y1="406.28" x2="99.458" y2="406.28"/>
		<g>
			<polygon fill="#FF0049" points="520.98,406.28 501.082,398.149 505.803,406.28 501.082,414.409 			"/>
		</g>
	</g>
</g>
<polyline fill="none" stroke="#231F20" points="498.479,406.28 498.479,384.295 520.98,384.295 "/>
<g>
	<g>
		<line fill="none" stroke="#231F20" x1="445.941" y1="406.28" x2="448.941" y2="406.28"/>
		<line fill="none" stroke="#231F20" stroke-dasharray="6.2763,6.2763" x1="455.217" y1="406.28" x2="514.842" y2="406.28"/>
		<polyline fill="none" stroke="#231F20" points="517.98,406.28 520.98,406.28 520.98,403.28 		"/>
		<line fill="none" stroke="#231F20" stroke-dasharray="6.4655,6.4655" x1="520.98" y1="396.814" x2="520.98" y2="335.393"/>
		<line fill="none" stroke="#231F20" x1="520.98" y1="332.16" x2="520.98" y2="329.16"/>
	</g>
</g>
<g>
	
		<circle fill="none" stroke="#0074FF" stroke-width="2" stroke-linecap="round" stroke-dasharray="12.1212,12.1212" cx="99.458" cy="406.207" r="165.9"/>
</g>
<g id="g5729" transform="translate(164.10387,1.7187404e-8)">
	<path id="path5731" fill="none" stroke="#010101" stroke-linecap="square" d="M-63.956,391.39c9.53,0,17.204,8.325,17.204,18.668
		v23.091H-81.16v-23.091C-81.161,399.717-73.489,391.39-63.956,391.39z"/>
	<g id="g5735">
		<path id="path5737" fill="none" stroke="#F58020" stroke-width="3" d="M-75.404,433.234l-17.719,17.719"/>
		<path id="path5739" fill="none" stroke="#F58020" stroke-width="3" d="M-62.409,433.234l-17.719,17.719"/>
		<path id="path5741" fill="none" stroke="#F58020" stroke-width="3" d="M-47.887,433.234l-17.719,17.719"/>
		<path id="path5743" fill="none" stroke="#F58020" stroke-width="3" d="M-33.78,433.234l-17.72,17.719"/>
		<path id="path5745" fill="none" stroke="#F58020" stroke-width="3" d="M-34.447,448.421l-2.532,2.531"/>
		<path id="path5747" fill="none" stroke="#F58020" stroke-width="3" d="M-89.999,433.238l-6.163,6.159"/>
	</g>
	<path id="path5749" fill="none" stroke="#010101" d="M-96.364,433.16h63.652"/>
</g>
<circle fill="#FFFFFF" stroke="#231F20" stroke-miterlimit="10" cx="99.833" cy="406.207" r="5.176"/>
<g>
	<path fill="none" d="M-113.085,358.035"/>
</g>
<g>
	<path fill="none" d="M-97.556,99.035"/>
</g>
<g>
	<path fill="none" d="M360.035,337.15"/>
</g>
<g>
	<path fill="none" d="M608.71-493.37"/>
</g>
<g>
	<path fill="none" d="M837.889,365.15"/>
</g>
<g>
	<path fill="none" d="M837.889,528.15"/>
</g>
<g>
	<path fill="none" d="M-66.442,528.15"/>
</g>
<g>
	<path fill="none" d="M522.249,160.29"/>
</g>
<g>
	<path fill="none" d="M265.358,483.928"/>
</g>
<circle fill="#FFFFFF" stroke="#231F20" stroke-miterlimit="10" cx="99.833" cy="406.207" r="5.176"/>
<text transform="matrix(1 0 0 1 306.8916 154.2495)"><tspan x="0" y="0" fill="#00B52F" font-family="'MyriadPro-Semibold'" font-size="24">L</tspan><tspan x="11.832" y="4" fill="#00B52F" font-family="'MyriadPro-Semibold'" font-size="18">2</tspan></text>
<line fill="none" stroke="#231F20" stroke-width="2" stroke-linecap="round" stroke-dasharray="6,6" x1="99.458" y1="406.207" x2="203.979" y2="406.28"/>
<line fill="none" stroke="#231F20" stroke-width="2" stroke-linecap="round" stroke-dasharray="6,6" x1="126.41" y1="308.877" x2="99.458" y2="406.207"/>
<line fill="none" stroke="#231F20" stroke-width="2" stroke-linecap="round" stroke-dasharray="6,6" x1="520.98" y1="98.998" x2="625.501" y2="99.071"/>
<line fill="none" stroke="#231F20" stroke-width="2" stroke-linecap="round" stroke-dasharray="6,6" x1="419.734" y1="138.397" x2="519.804" y2="99.108"/>
<g>
	<g>
		<path fill="none" stroke="#231F20" stroke-width="2" stroke-linecap="round" stroke-dasharray="6,6" d="M136.624,324.741
			c30.891,14.116,52.356,45.284,52.356,81.466"/>
		<g>
			<polygon fill="#231F20" points="123.354,319.91 139.096,334.547 137.551,325.272 144.841,319.336 			"/>
		</g>
	</g>
</g>
<g>
	<g>
		<path fill="none" stroke="#231F20" stroke-width="2" stroke-linecap="round" stroke-dasharray="6,6" d="M434.391,117.52
			c-1.267-5.962-1.933-12.146-1.933-18.485c0-48.889,39.632-88.521,88.521-88.521c48.889,0,88.521,39.632,88.521,88.521"/>
		<g>
			<polygon fill="#231F20" points="438.426,131.053 440.745,109.683 434.235,116.466 425.118,114.173 			"/>
		</g>
	</g>
</g>
<text transform="matrix(1 0 0 1 80.8921 333.1616)"><tspan x="0" y="0" fill="#0074FF" font-family="'MyriadPro-Semibold'" font-size="24">L</tspan><tspan x="11.832" y="4" fill="#0074FF" font-family="'MyriadPro-Semibold'" font-size="18">1</tspan></text>
<text transform="matrix(1 0 0 1 306.8916 443.5503)" fill="#FF3939" font-family="'MyriadPro-SemiboldIt'" font-size="24">d</text>
<text transform="matrix(1 0 0 1 536.8921 263.0337)"><tspan x="0" y="0" fill="#BA00FF" font-family="'MyriadPro-Semibold'" font-size="24">L</tspan><tspan x="11.832" y="4" fill="#BA00FF" font-family="'MyriadPro-Semibold'" font-size="18">3</tspan></text>
<text transform="matrix(1 0 0 1 143.7397 371.6597)"><tspan x="0" y="0" fill="#0074FF" font-family="'MyriadPro-Semibold'" font-size="24">θ</tspan><tspan x="13.295" y="4" fill="#0074FF" font-family="'MyriadPro-Semibold'" font-size="18">1</tspan></text>
<text transform="matrix(1 0 0 1 504.8921 70.7827)"><tspan x="0" y="0" fill="#00B52F" font-family="'MyriadPro-Semibold'" font-size="24">θ</tspan><tspan x="13.296" y="4" fill="#00B52F" font-family="'MyriadPro-Semibold'" font-size="18">2</tspan></text>
</svg>
