<?xml version="1.0" encoding="utf-8"?>
<!-- Generator: Adobe Illustrator 15.1.0, SVG Export Plug-In . SVG Version: 6.00 Build 0)  -->
<!DOCTYPE svg PUBLIC "-//W3C//DTD SVG 1.1//EN" "http://www.w3.org/Graphics/SVG/1.1/DTD/svg11.dtd">
<svg version="1.1" id="Layer_1" xmlns="http://www.w3.org/2000/svg" xmlns:xlink="http://www.w3.org/1999/xlink" x="0px" y="0px"
	 width="1023.979px" height="466.078px" viewBox="56.979 98.311 1023.979 466.078"
	 enable-background="new 56.979 98.311 1023.979 466.078" xml:space="preserve">
<g id="g5729" transform="translate(164.10387,1.7187404e-8)">
	<path fill="none" stroke="#010101" stroke-linecap="square" d="M113.354,313.357c-14.627,0-26.4,12.777-26.399,28.646v35.432
		h52.798v-35.432C139.753,326.132,127.978,313.357,113.354,313.357z"/>
	<g id="g5735">
		<path id="path5737" fill="none" stroke="#F58020" stroke-width="3" d="M95.788,377.566l-27.189,27.189"/>
		<path id="path5739" fill="none" stroke="#F58020" stroke-width="3" d="M115.729,377.566L88.54,404.755"/>
		<path id="path5741" fill="none" stroke="#F58020" stroke-width="3" d="M138.013,377.566l-27.19,27.189"/>
		<path id="path5743" fill="none" stroke="#F58020" stroke-width="3" d="M159.66,377.566l-27.192,27.189"/>
		<path id="path5745" fill="none" stroke="#F58020" stroke-width="3" d="M158.636,400.871l-3.885,3.885"/>
		<path id="path5747" fill="none" stroke="#F58020" stroke-width="3" d="M73.392,377.572l-9.457,9.451"/>
	</g>
	<path id="path5749" fill="none" stroke="#010101" d="M63.625,377.453H161.3"/>
</g>
<g id="g5751" transform="translate(224.0108,2.6171874e-6)">
	<path fill="none" stroke="#010101" stroke-linecap="square" d="M792.498,312.357c-14.623,0-26.396,12.777-26.397,28.646v35.432
		h52.797v-35.432C818.897,325.132,807.125,312.357,792.498,312.357z"/>
	<g id="g5757">
		<path id="path5759" fill="none" stroke="#F58020" stroke-width="3" d="M774.933,376.566l-27.189,27.189"/>
		<path id="path5761" fill="none" stroke="#F58020" stroke-width="3" d="M794.878,376.566l-27.193,27.189"/>
		<path id="path5763" fill="none" stroke="#F58020" stroke-width="3" d="M817.158,376.566l-27.19,27.189"/>
		<path id="path5765" fill="none" stroke="#F58020" stroke-width="3" d="M838.805,376.566l-27.188,27.189"/>
		<path id="path5767" fill="none" stroke="#F58020" stroke-width="3" d="M837.783,399.871l-3.885,3.885"/>
		<path id="path5769" fill="none" stroke="#F58020" stroke-width="3" d="M752.54,376.572l-9.459,9.451"/>
	</g>
	<path id="path5771" fill="none" stroke="#010101" d="M742.773,376.453h97.671"/>
</g>
<path opacity="0.5" fill="#FF3939" stroke="#231F20" stroke-width="2" d="M1015.62,354.091H278.458c-8.284,0-15-6.716-15-15
	s6.716-15,15-15h737.162c8.284,0,15,6.716,15,15S1023.904,354.091,1015.62,354.091z"/>
<path fill="#BA00FF" stroke="#231F20" d="M1015.731,349.167c-0.802,0-1.616-0.088-2.432-0.272l-680.59-153.611
	c-5.926-1.337-9.646-7.226-8.308-13.152c1.337-5.926,7.229-9.646,13.152-8.308l680.59,153.611c5.926,1.337,9.646,7.226,8.309,13.152
	C1025.298,345.697,1020.76,349.167,1015.731,349.167z"/>
<path fill="#0074FF" stroke="#231F20" d="M278.7,347.52c-3.647,0-6.844-2.664-7.406-6.38l-25.113-166.006
	c-0.62-4.095,2.198-7.917,6.294-8.537c4.093-0.622,7.918,2.198,8.537,6.294l25.113,166.006c0.62,4.096-2.198,7.918-6.294,8.537
	C279.451,347.492,279.073,347.52,278.7,347.52z"/>
<circle fill="#FFFFFF" stroke="#231F20" stroke-miterlimit="10" cx="1016.307" cy="339.165" r="5.177"/>
<circle fill="#FFFFFF" stroke="#231F20" stroke-miterlimit="10" cx="278.833" cy="339.091" r="5.176"/>
<circle fill="#FFFFFF" stroke="#231F20" stroke-miterlimit="10" cx="1016.51" cy="339.091" r="5.176"/>
<g>
	<g>
		<path fill="none" stroke="#BA00FF" stroke-width="3" stroke-linecap="round" d="M356.085,564.389
			c-0.646-1.891-1.284-3.785-1.914-5.684"/>
		<path fill="none" stroke="#BA00FF" stroke-width="3" stroke-linecap="round" stroke-dasharray="11.8764,11.8764" d="
			M350.528,547.402c-20.581-65.777-31.672-135.749-31.673-208.311c0-80.424,13.625-157.666,38.694-229.542"/>
		<path fill="none" stroke="#BA00FF" stroke-width="3" stroke-linecap="round" d="M359.53,103.947
			c0.675-1.882,1.357-3.761,2.048-5.636"/>
	</g>
</g>
<path fill="#00B52F" stroke="#231F20" d="M335.141,192.054c-0.32,0-0.645-0.021-0.971-0.063l-81.535-10.541
	c-4.108-0.531-7.008-4.292-6.477-8.399c0.531-4.107,4.293-7.013,8.399-6.477l81.535,10.541c4.108,0.531,7.008,4.292,6.477,8.399
	C342.081,189.296,338.854,192.054,335.141,192.054z"/>
<path fill="none" stroke="#00B52F" stroke-width="3" stroke-linecap="round" stroke-dasharray="12" d="M445.386,4.467"/>
<path fill="none" stroke="#00B52F" stroke-width="3" stroke-linecap="round" stroke-dasharray="12" d="M371.682-71.669"/>
<path fill="none" stroke="#00B52F" stroke-width="3" stroke-linecap="round" stroke-dasharray="12" d="M519.09-71.669"/>
<path opacity="0.25" fill="#00B52F" d="M328.956-144.213c5.199-7.373,10.514-14.658,15.942-21.854
	C338.924-159.354,333.576-152.039,328.956-144.213z"/>
<path fill="none" stroke="#00B52F" stroke-width="3" stroke-linecap="round" stroke-dasharray="12" d="M278.807,79.41
	c-27.048,81.519-41.311,168.761-41.311,258.754c0,88.699,14.839,173.932,42.17,253.352"/>
<circle fill="none" stroke="#0074FF" stroke-width="2" stroke-linecap="round" stroke-dasharray="12" cx="278.458" cy="339.091" r="164.559"/>
<circle fill="#FFFFFF" stroke="#231F20" stroke-miterlimit="10" cx="253.892" cy="174.708" r="5.176"/>
<circle fill="#FFFFFF" stroke="#231F20" stroke-miterlimit="10" cx="334.131" cy="184.729" r="5.176"/>
<text transform="matrix(1 0 0 1 658.0381 238.3569)" fill="#963BFF" font-family="'MyriadPro-Semibold'" font-size="24">L3</text>
<text transform="matrix(1 0 0 1 600.0391 382.2974)" fill="#FF3939" font-family="'MyriadPro-Semibold'" font-size="24">L4</text>
<text transform="matrix(1 0 0 1 288.5215 158.0122)" fill="#00B52F" font-family="'MyriadPro-Semibold'" font-size="24">L2</text>
<text transform="matrix(1 0 0 1 284.0088 261.3589)" fill="#0074FF" font-family="'MyriadPro-Semibold'" font-size="24">L1</text>
</svg>
