<?xml version="1.0" encoding="utf-8"?>
<!-- Generator: Adobe Illustrator 15.1.0, SVG Export Plug-In . SVG Version: 6.00 Build 0)  -->
<!DOCTYPE svg PUBLIC "-//W3C//DTD SVG 1.1//EN" "http://www.w3.org/Graphics/SVG/1.1/DTD/svg11.dtd">
<svg version="1.1" id="Layer_1" xmlns="http://www.w3.org/2000/svg" xmlns:xlink="http://www.w3.org/1999/xlink" x="0px" y="0px"
	 width="1017.979px" height="834px" viewBox="62.979 -255.965 1017.979 834" enable-background="new 62.979 -255.965 1017.979 834"
	 xml:space="preserve">
<g id="g5729" transform="translate(164.10387,1.7187404e-8)">
	<path fill="none" stroke="#010101" stroke-linecap="square" d="M113.354,313.357c-14.627,0-26.4,12.777-26.399,28.646v35.432
		h52.798v-35.432C139.753,326.132,127.978,313.357,113.354,313.357z"/>
	<g id="g5735">
		<path id="path5737" fill="none" stroke="#F58020" stroke-width="3" d="M95.788,377.566l-27.189,27.189"/>
		<path id="path5739" fill="none" stroke="#F58020" stroke-width="3" d="M115.729,377.566L88.54,404.755"/>
		<path id="path5741" fill="none" stroke="#F58020" stroke-width="3" d="M138.013,377.566l-27.19,27.189"/>
		<path id="path5743" fill="none" stroke="#F58020" stroke-width="3" d="M159.66,377.566l-27.192,27.189"/>
		<path id="path5745" fill="none" stroke="#F58020" stroke-width="3" d="M158.636,400.871l-3.885,3.885"/>
		<path id="path5747" fill="none" stroke="#F58020" stroke-width="3" d="M73.392,377.572l-9.457,9.451"/>
	</g>
	<path id="path5749" fill="none" stroke="#010101" d="M63.625,377.453H161.3"/>
</g>
<path opacity="0.5" fill="#0074FF" stroke="#231F20" d="M187.373,485.264c-1.413,0-2.841-0.398-4.11-1.232
	c-3.462-2.273-4.425-6.924-2.152-10.386l91.079-138.672c2.273-3.464,6.923-4.426,10.386-2.151c3.462,2.273,4.425,6.924,2.151,10.386
	L193.648,481.88C192.208,484.074,189.813,485.264,187.373,485.264z"/>
<g id="g5751" transform="translate(224.0108,2.6171874e-6)">
	<path fill="none" stroke="#010101" stroke-linecap="square" d="M792.498,312.357c-14.623,0-26.396,12.777-26.397,28.646v35.432
		h52.797v-35.432C818.897,325.132,807.125,312.357,792.498,312.357z"/>
	<g id="g5757">
		<path id="path5759" fill="none" stroke="#F58020" stroke-width="3" d="M774.933,376.566l-27.189,27.189"/>
		<path id="path5761" fill="none" stroke="#F58020" stroke-width="3" d="M794.878,376.566l-27.193,27.189"/>
		<path id="path5763" fill="none" stroke="#F58020" stroke-width="3" d="M817.158,376.566l-27.19,27.189"/>
		<path id="path5765" fill="none" stroke="#F58020" stroke-width="3" d="M838.805,376.566l-27.188,27.189"/>
		<path id="path5767" fill="none" stroke="#F58020" stroke-width="3" d="M837.783,399.871l-3.885,3.885"/>
		<path id="path5769" fill="none" stroke="#F58020" stroke-width="3" d="M752.54,376.572l-9.459,9.451"/>
	</g>
	<path id="path5771" fill="none" stroke="#010101" d="M742.773,376.453h97.671"/>
</g>
<path opacity="0.5" fill="#FF3939" stroke="#231F20" d="M1015.62,354.091H278.458c-8.284,0-15-6.716-15-15s6.716-15,15-15h737.162
	c8.284,0,15,6.716,15,15S1023.904,354.091,1015.62,354.091z"/>
<path fill="#BA00FF" stroke="#231F20" d="M1015.713,349.165c-2.223,0-4.466-0.671-6.408-2.066L440.828-61.252
	c-4.934-3.544-6.061-10.417-2.517-15.352s10.416-6.062,15.352-2.517l568.476,408.351c4.935,3.544,6.062,10.417,2.517,15.352
	C1022.507,347.573,1019.135,349.165,1015.713,349.165z"/>
<path fill="#0074FF" stroke="#231F20" d="M279.72,347.709c-2.368,0-4.698-1.119-6.156-3.208l-94.464-135.308
	c-2.371-3.396-1.54-8.072,1.856-10.443c3.395-2.372,8.071-1.541,10.443,1.856l94.464,135.309c2.371,3.396,1.54,8.072-1.856,10.443
	C282.7,347.271,281.203,347.709,279.72,347.709z"/>
<circle fill="#FFFFFF" stroke="#231F20" stroke-miterlimit="10" cx="1016.307" cy="339.165" r="5.177"/>
<circle fill="#FFFFFF" stroke="#231F20" stroke-miterlimit="10" cx="278.833" cy="339.091" r="5.176"/>
<circle fill="#FFFFFF" stroke="#231F20" stroke-miterlimit="10" cx="1016.51" cy="339.091" r="5.176"/>
<g>
	<g>
		
			<line fill="none" stroke="#FF3939" stroke-width="2" stroke-miterlimit="10" x1="294.186" y1="438.035" x2="1015.51" y2="438.035"/>
		<g>
			<polygon fill="#FF3939" points="297.104,447.951 279.833,437.98 297.104,428.007 			"/>
		</g>
		<g>
			<rect x="1014.51" y="431.535" fill="#FF3939" width="2" height="13"/>
		</g>
	</g>
</g>
<g>
	<line x1="320.797" y1="284.035" x2="1016.51" y2="284.035"/>
	<g>
		<line fill="none" stroke="#963BFF" stroke-width="2" x1="335.15" y1="284.035" x2="1015.51" y2="284.035"/>
		<g>
			<polygon fill="#963BFF" points="338.068,293.951 320.797,283.98 338.068,274.007 			"/>
		</g>
		<g>
			<rect x="1014.51" y="277.535" fill="#963BFF" width="2" height="13"/>
		</g>
	</g>
</g>
<text transform="matrix(1 0 0 1 372.9697 278.3569)" fill="#963BFF" font-family="'MyriadPro-Semibold'" font-size="24">L3</text>
<text transform="matrix(1 0 0 1 358.0391 430.0347)" fill="#FF3939" font-family="'MyriadPro-Semibold'" font-size="24">L4</text>
<g>
	<g>
		
			<line fill="none" stroke="#000000" stroke-width="2" stroke-miterlimit="10" x1="540.035" y1="270.035" x2="1015.889" y2="270.035"/>
		<g>
			<rect x="539.035" y="263.535" width="2" height="13"/>
		</g>
		<g>
			<rect x="1014.889" y="263.535" width="2" height="13"/>
		</g>
	</g>
</g>
<text transform="matrix(1 0 0 1 736.1162 264.1909)" font-family="'MyriadPro-Semibold'" font-size="24">L3 - L2</text>
<g>
	<g>
		<path fill="none" stroke="#0074FF" stroke-width="2" stroke-linecap="round" d="M186.417,206.341
			c0.314-1.976,0.635-3.95,0.962-5.921c-1.671,1.1-3.322,2.229-4.951,3.388"/>
		<path fill="none" stroke="#0074FF" stroke-width="2" stroke-linecap="round" stroke-dasharray="11.7165,11.7165" d="
			M173.128,210.926c-36.982,30.425-60.57,76.538-60.57,128.165c0,53.729,25.547,101.483,65.151,131.801"/>
		<path fill="none" stroke="#0074FF" stroke-width="2" stroke-linecap="round" d="M182.429,474.375
			c1.629,1.158,3.279,2.288,4.951,3.388c-0.328-1.972-0.648-3.945-0.962-5.921"/>
		<path fill="none" stroke="#0074FF" stroke-width="2" stroke-linecap="round" stroke-dasharray="11.5903,11.5903" d="
			M184.678,460.385c-5.731-39.604-8.699-80.103-8.699-121.294c0-43.179,3.261-85.597,9.548-127.021"/>
	</g>
</g>
<g>
	<g>
		<path fill="none" stroke="#0074FF" stroke-width="2" stroke-linecap="round" d="M192.447,197.214
			c-1.71,1.039-3.399,2.107-5.067,3.206c-0.328,1.971-0.648,3.945-0.962,5.921"/>
		<path fill="none" stroke="#0074FF" stroke-width="2" stroke-linecap="round" stroke-dasharray="11.5903,11.5903" d="
			M184.678,217.798c-5.731,39.604-8.699,80.102-8.699,121.293c0,43.179,3.261,85.597,9.548,127.021"/>
		<path fill="none" stroke="#0074FF" stroke-width="2" stroke-linecap="round" d="M186.417,471.842
			c0.314,1.976,0.635,3.949,0.962,5.921c1.668,1.098,3.357,2.167,5.067,3.205"/>
		<path fill="none" stroke="#0074FF" stroke-width="2" stroke-linecap="round" stroke-dasharray="11.8991,11.8991" d="
			M202.829,486.778c22.678,11.641,48.384,18.214,75.629,18.214c91.624,0,165.9-74.276,165.9-165.9s-74.276-165.9-165.9-165.9
			c-29.369,0-56.949,7.639-80.877,21.028"/>
	</g>
</g>
<g>
	<g>
		<path fill="none" stroke="#BA00FF" stroke-width="3" stroke-linecap="round" d="M356.085,564.389
			c-0.646-1.891-1.284-3.785-1.914-5.684"/>
		<path fill="none" stroke="#BA00FF" stroke-width="3" stroke-linecap="round" stroke-dasharray="12.0348,12.0348" d="
			M350.48,547.251c-20.55-65.734-31.625-135.654-31.625-208.161c0-272.074,155.941-507.725,383.321-622.451"/>
		<path fill="none" stroke="#BA00FF" stroke-width="3" stroke-linecap="round" d="M707.565-286.05
			c1.793-0.885,3.59-1.763,5.392-2.633"/>
	</g>
</g>
<path fill="#00B52F" stroke="#231F20" d="M447.238-62.686c-1.447,0-2.908-0.418-4.196-1.29L327.88-141.907
	c-3.431-2.321-4.33-6.984-2.008-10.415c2.322-3.43,6.985-4.328,10.415-2.008l115.162,77.932c3.431,2.321,4.33,6.984,2.008,10.415
	C452.007-63.841,449.644-62.686,447.238-62.686z"/>
<circle fill="#FFFFFF" stroke="#231F20" stroke-miterlimit="10" cx="445.386" cy="-71.669" r="5.176"/>
<path fill="#FFFFFF" stroke="#231F20" stroke-miterlimit="10" d="M332.083-153.295c-2.858,0-5.176,2.317-5.176,5.176
	c0,1.637,0.775,3.08,1.962,4.029c1.979-2.808,3.975-5.604,5.987-8.386C334.054-152.988,333.106-153.295,332.083-153.295z"/>
<path fill="#FFFFFF" stroke="#231F20" stroke-miterlimit="10" d="M337.259-148.119c0-1.835-0.961-3.438-2.402-4.357
	c-2.013,2.782-4.008,5.578-5.987,8.386c0.885,0.707,1.992,1.148,3.213,1.148C334.941-142.942,337.259-145.261,337.259-148.119z"/>
<ellipse fill="none" stroke="#00B52F" stroke-width="3" stroke-linecap="round" stroke-dasharray="12" cx="445.386" cy="-71.669" rx="135.044" ry="139.5"/>
<path opacity="0.25" fill="#00B52F" d="M328.956-144.213c5.199-7.373,10.514-14.658,15.942-21.854
	C338.924-159.354,333.576-152.039,328.956-144.213z"/>
<path opacity="0.25" fill="#00B52F" d="M445.386,67.861c74.601,0,135.074-62.47,135.074-139.53
	c0-77.061-60.474-139.531-135.074-139.531c-39.354,0-74.773,17.391-99.461,45.133c-5.428,7.196-10.743,14.481-15.942,21.854
	c-12.479,21.139-19.671,45.973-19.671,72.544C310.312,5.392,370.787,67.861,445.386,67.861z"/>
<path opacity="0.25" fill="#0074FF" d="M444.585,338.164c0-91.624-74.276-165.9-165.9-165.9c-33.716,0-65.076,10.067-91.257,27.347
	c-7.453,44.981-11.33,91.169-11.33,138.264c0,47.323,3.918,93.729,11.442,138.917c26.158,17.234,57.477,27.273,91.145,27.273
	C370.309,504.064,444.585,429.787,444.585,338.164z"/>
<g>
	<g>
		
			<line fill="none" stroke="#000000" stroke-width="2" stroke-miterlimit="10" x1="176.041" y1="298.035" x2="1015.889" y2="298.035"/>
		<g>
			<rect x="175.041" y="291.535" width="2" height="13"/>
		</g>
		<g>
			<rect x="1014.889" y="291.535" width="2" height="13"/>
		</g>
	</g>
</g>
<text transform="matrix(1 0 0 1 736.1162 318.1909)" font-family="'MyriadPro-Semibold'" font-size="24">L3 + L2</text>
<g>
	<g>
		
			<line fill="none" stroke="#000000" stroke-width="2" stroke-miterlimit="10" x1="113.558" y1="461.035" x2="1015.889" y2="461.035"/>
		<g>
			<rect x="112.558" y="454.535" width="2" height="13"/>
		</g>
		<g>
			<rect x="1014.889" y="454.535" width="2" height="13"/>
		</g>
	</g>
</g>
<g>
	<g>
		
			<line fill="none" stroke="#000000" stroke-width="2" stroke-miterlimit="10" x1="445.358" y1="416.813" x2="1015.889" y2="416.813"/>
		<g>
			<rect x="444.358" y="410.313" width="2" height="13"/>
		</g>
		<g>
			<rect x="1014.889" y="410.313" width="2" height="13"/>
		</g>
	</g>
</g>
<text transform="matrix(1 0 0 1 674.8936 409.1909)" font-family="'MyriadPro-Semibold'" font-size="24">L4 - L1</text>
<text transform="matrix(1 0 0 1 674.8936 488.1909)" font-family="'MyriadPro-Semibold'" font-size="24">L4 + L1</text>
<path fill="none" stroke="#00B52F" stroke-width="3" stroke-linecap="round" stroke-dasharray="12" d="M770.4-170.128
	c-189.258,91.306-319.839,285.013-319.839,509.22c0,70.073,12.755,137.168,36.07,199.088"/>
<path fill="none" stroke="#00B52F" stroke-width="3" stroke-linecap="round" stroke-dasharray="12" d="M215.988,595.019
	c-25.98-80.957-40.009-167.268-40.009-256.855c0-320.702,179.776-599.414,444.049-740.858"/>
<circle fill="#FFFFFF" stroke="#231F20" stroke-miterlimit="10" cx="185.515" cy="204.442" r="5.176"/>
<circle fill="#FFFFFF" stroke="#231F20" stroke-miterlimit="10" cx="186.915" cy="477.17" r="5.176"/>
<line fill="none" x1="192.09" y1="600.035" x2="515.906" y2="532.035"/>
<line fill="none" x1="787.979" y1="-142.942" x2="604.979" y2="-425.965"/>
</svg>
