<?xml version="1.0" encoding="utf-8"?>
<!-- Generator: Adobe Illustrator 15.1.0, SVG Export Plug-In . SVG Version: 6.00 Build 0)  -->
<!DOCTYPE svg PUBLIC "-//W3C//DTD SVG 1.1//EN" "http://www.w3.org/Graphics/SVG/1.1/DTD/svg11.dtd">
<svg version="1.1" id="Layer_1" xmlns="http://www.w3.org/2000/svg" xmlns:xlink="http://www.w3.org/1999/xlink" x="0px" y="0px"
	 width="1060.212px" height="890px" viewBox="20.747 -347.965 1060.212 890" enable-background="new 20.747 -347.965 1060.212 890"
	 xml:space="preserve">
<g id="g5729" transform="translate(164.10387,1.7187404e-8)">
	<path id="path5731" fill="none" stroke="#010101" stroke-linecap="square" d="M113.354,313.357
		c14.624,0,26.399,12.775,26.399,28.646v35.432H86.955v-35.432C86.954,326.134,98.727,313.357,113.354,313.357z"/>
	<g id="g5735">
		<path id="path5737" fill="none" stroke="#F58020" stroke-width="3" d="M95.788,377.566l-27.189,27.189"/>
		<path id="path5739" fill="none" stroke="#F58020" stroke-width="3" d="M115.729,377.566L88.54,404.755"/>
		<path id="path5741" fill="none" stroke="#F58020" stroke-width="3" d="M138.013,377.566l-27.19,27.189"/>
		<path id="path5743" fill="none" stroke="#F58020" stroke-width="3" d="M159.66,377.566l-27.192,27.189"/>
		<path id="path5745" fill="none" stroke="#F58020" stroke-width="3" d="M158.636,400.871l-3.885,3.885"/>
		<path id="path5747" fill="none" stroke="#F58020" stroke-width="3" d="M73.392,377.572l-9.457,9.451"/>
	</g>
	<path id="path5749" fill="none" stroke="#010101" d="M63.625,377.453H161.3"/>
</g>
<g id="g5751" transform="translate(224.0108,2.6171874e-6)">
	<path id="path5753" fill="none" stroke="#010101" stroke-linecap="square" d="M792.498,312.357
		c14.627,0,26.399,12.775,26.399,28.646v35.432h-52.797v-35.432C766.102,325.134,777.875,312.357,792.498,312.357z"/>
	<g id="g5757">
		<path id="path5759" fill="none" stroke="#F58020" stroke-width="3" d="M774.933,376.566l-27.189,27.189"/>
		<path id="path5761" fill="none" stroke="#F58020" stroke-width="3" d="M794.878,376.566l-27.193,27.189"/>
		<path id="path5763" fill="none" stroke="#F58020" stroke-width="3" d="M817.158,376.566l-27.19,27.189"/>
		<path id="path5765" fill="none" stroke="#F58020" stroke-width="3" d="M838.805,376.566l-27.188,27.189"/>
		<path id="path5767" fill="none" stroke="#F58020" stroke-width="3" d="M837.783,399.871l-3.885,3.885"/>
		<path id="path5769" fill="none" stroke="#F58020" stroke-width="3" d="M752.54,376.572l-9.459,9.451"/>
	</g>
	<path id="path5771" fill="none" stroke="#010101" d="M742.773,376.453h97.671"/>
</g>
<path opacity="0.5" fill="#FF3939" stroke="#231F20" stroke-width="2" d="M1015.62,354.091H278.458c-8.284,0-15-6.716-15-15
	s6.716-15,15-15h737.162c8.284,0,15,6.716,15,15S1023.904,354.091,1015.62,354.091z"/>
<path fill="#BA00FF" stroke="#010002" d="M1015.713,349.165c-2.223,0-4.466-0.671-6.408-2.066L440.828-61.252
	c-4.934-3.544-6.061-10.417-2.517-15.352s10.416-6.062,15.352-2.517l568.476,408.351c4.935,3.544,6.062,10.417,2.517,15.352
	C1022.507,347.573,1019.135,349.165,1015.713,349.165z"/>
<path fill="#0074FF" stroke="#231F20" d="M278.458,346.591H113.112c-4.142,0-7.5-3.357-7.5-7.5c0-4.142,3.358-7.5,7.5-7.5h165.346
	c4.142,0,7.5,3.358,7.5,7.5C285.958,343.234,282.6,346.591,278.458,346.591z"/>
<circle fill="#FFFFFF" stroke="#231F20" stroke-miterlimit="10" cx="1016.307" cy="339.165" r="5.177"/>
<circle fill="#FFFFFF" stroke="#231F20" stroke-miterlimit="10" cx="112.558" cy="339.381" r="5.176"/>
<circle fill="#FFFFFF" stroke="#231F20" stroke-miterlimit="10" cx="278.833" cy="339.091" r="5.176"/>
<circle fill="#FFFFFF" stroke="#231F20" stroke-miterlimit="10" cx="1016.51" cy="339.091" r="5.176"/>
<g>
	<g>
		
			<line fill="none" stroke="#FF3939" stroke-width="2" stroke-miterlimit="10" x1="294.186" y1="438.035" x2="1015.51" y2="438.035"/>
		<g>
			<polygon fill="#FF3939" points="297.104,447.951 279.833,437.98 297.104,428.007 			"/>
		</g>
		<g>
			<rect x="1014.51" y="431.535" fill="#FF3939" width="2" height="13"/>
		</g>
	</g>
</g>
<g>
	<line x1="320.797" y1="284.035" x2="1016.51" y2="284.035"/>
	<g>
		<line fill="none" stroke="#963BFF" stroke-width="2" x1="335.15" y1="284.035" x2="1015.51" y2="284.035"/>
		<g>
			<polygon fill="#963BFF" points="338.068,293.951 320.797,283.98 338.068,274.007 			"/>
		</g>
		<g>
			<rect x="1014.51" y="277.535" fill="#963BFF" width="2" height="13"/>
		</g>
	</g>
</g>
<text transform="matrix(1 0 0 1 474.9692 272.3569)" fill="#963BFF" font-family="'MyriadPro-Semibold'" font-size="24">L3</text>
<text transform="matrix(1 0 0 1 358.0391 430.0347)" fill="#FF3939" font-family="'MyriadPro-Semibold'" font-size="24">L4</text>
<g>
	<g>
		
			<line fill="none" stroke="#000000" stroke-width="2" stroke-miterlimit="10" x1="540.035" y1="270.035" x2="1015.889" y2="270.035"/>
		<g>
			<rect x="539.035" y="263.535" width="2" height="13"/>
		</g>
		<g>
			<rect x="1014.889" y="263.535" width="2" height="13"/>
		</g>
	</g>
</g>
<text transform="matrix(1 0 0 1 736.1162 264.1909)" font-family="'MyriadPro-Semibold'" font-size="24">L3 - L2</text>
<g>
	
		<circle fill="none" stroke="#0074FF" stroke-width="2" stroke-linecap="round" stroke-dasharray="12.1212,12.1212" cx="278.458" cy="339.091" r="165.9"/>
</g>
<g>
	<g>
		<path fill="none" stroke="#BA00FF" stroke-width="3" stroke-linecap="round" d="M356.085,564.389
			c-0.646-1.891-1.284-3.785-1.914-5.684"/>
		<path fill="none" stroke="#BA00FF" stroke-width="3" stroke-linecap="round" stroke-dasharray="12.0348,12.0348" d="
			M350.48,547.251c-20.55-65.734-31.625-135.654-31.625-208.161c0-272.074,155.941-507.725,383.321-622.451"/>
		<path fill="none" stroke="#BA00FF" stroke-width="3" stroke-linecap="round" d="M707.565-286.05
			c1.793-0.885,3.59-1.763,5.392-2.633"/>
	</g>
</g>
<g>
	<g>
		<path fill="none" stroke="#00B52F" stroke-width="3" stroke-linecap="round" d="M138.503,639.041
			c-0.646-1.891-1.286-3.785-1.92-5.682"/>
		<path fill="none" stroke="#00B52F" stroke-width="3" stroke-linecap="round" stroke-dasharray="11.9601,11.9601" d="
			M132.865,621.992c-28.5-89.096-43.886-184.057-43.886-282.61c0-361.528,207.036-674.699,509.014-827.418"/>
		<path fill="none" stroke="#00B52F" stroke-width="3" stroke-linecap="round" d="M603.33-490.714
			c1.79-0.891,3.583-1.776,5.38-2.655"/>
	</g>
</g>
<path fill="#00B52F" stroke="#010002" d="M447.238-62.686c-1.447,0-2.908-0.418-4.197-1.29L255.688-190.76
	c-3.43-2.321-4.329-6.984-2.008-10.415c2.322-3.432,6.984-4.329,10.415-2.008L451.448-76.398c3.431,2.321,4.33,6.984,2.008,10.415
	C452.007-63.841,449.644-62.686,447.238-62.686z"/>
<g>
	<g>
		<path fill="none" stroke="#00B52F" stroke-width="3" stroke-linecap="round" d="M563.204,493.322
			c-0.639-1.893-1.267-3.791-1.883-5.693"/>
		<path fill="none" stroke="#00B52F" stroke-width="3" stroke-linecap="round" stroke-dasharray="12.034,12.034" d="
			M557.759,476.133c-12.834-43.345-19.724-89.243-19.724-136.752c0-187.125,106.887-349.284,262.937-428.755"/>
		<path fill="none" stroke="#00B52F" stroke-width="3" stroke-linecap="round" d="M806.356-92.073
			c1.792-0.885,3.592-1.759,5.396-2.622"/>
	</g>
</g>
<circle fill="#FFFFFF" stroke="#231F20" stroke-miterlimit="10" cx="445.386" cy="-71.669" r="5.176"/>
<circle fill="#FFFFFF" stroke="#231F20" stroke-miterlimit="10" cx="259.892" cy="-196.972" r="5.176"/>
<ellipse fill="none" stroke="#00B52F" stroke-width="3" stroke-linecap="round" stroke-dasharray="12" cx="445.245" cy="-71.187" rx="221.5" ry="228.807"/>
<ellipse opacity="0.25" fill="#00B52F" cx="445.386" cy="-71.186" rx="221" ry="228.291"/>
<circle opacity="0.25" fill="#0074FF" cx="279.833" cy="339.381" r="165.9"/>
<g>
	<g>
		
			<line fill="none" stroke="#000000" stroke-width="2" stroke-miterlimit="10" x1="91.075" y1="298.035" x2="1015.889" y2="298.035"/>
		<g>
			<rect x="90.075" y="291.535" width="2" height="13"/>
		</g>
		<g>
			<rect x="1014.889" y="291.535" width="2" height="13"/>
		</g>
	</g>
</g>
<text transform="matrix(1 0 0 1 736.1162 318.1909)" font-family="'MyriadPro-Semibold'" font-size="24">L3 + L2</text>
<g>
	<g>
		
			<line fill="none" stroke="#000000" stroke-width="2" stroke-miterlimit="10" x1="113.558" y1="461.035" x2="1015.889" y2="461.035"/>
		<g>
			<rect x="112.558" y="454.535" width="2" height="13"/>
		</g>
		<g>
			<rect x="1014.889" y="454.535" width="2" height="13"/>
		</g>
	</g>
</g>
<g>
	<g>
		
			<line fill="none" stroke="#000000" stroke-width="2" stroke-miterlimit="10" x1="445.358" y1="416.813" x2="1015.889" y2="416.813"/>
		<g>
			<rect x="444.358" y="410.313" width="2" height="13"/>
		</g>
		<g>
			<rect x="1014.889" y="410.313" width="2" height="13"/>
		</g>
	</g>
</g>
<text transform="matrix(1 0 0 1 674.8936 409.1909)" font-family="'MyriadPro-Semibold'" font-size="24">L4 - L1</text>
<text transform="matrix(1 0 0 1 674.8936 488.1909)" font-family="'MyriadPro-Semibold'" font-size="24">L4 + L1</text>
</svg>
