<?xml version="1.0" encoding="utf-8"?>
<!-- Generator: Adobe Illustrator 15.1.0, SVG Export Plug-In . SVG Version: 6.00 Build 0)  -->
<!DOCTYPE svg PUBLIC "-//W3C//DTD SVG 1.1//EN" "http://www.w3.org/Graphics/SVG/1.1/DTD/svg11.dtd">
<svg version="1.1" id="Layer_1" xmlns="http://www.w3.org/2000/svg" xmlns:xlink="http://www.w3.org/1999/xlink" x="0px" y="0px"
	 width="1223.979px" height="528px" viewBox="-143.021 76.035 1223.979 528" enable-background="new -143.021 76.035 1223.979 528"
	 xml:space="preserve">
<g id="g5729" transform="translate(164.10387,1.7187404e-8)">
	<path id="path5731" fill="none" stroke="#010101" stroke-linecap="square" d="M113.354,313.357
		c14.624,0,26.399,12.775,26.399,28.646v35.432H86.955v-35.432C86.954,326.134,98.727,313.357,113.354,313.357z"/>
	<g id="g5735">
		<path id="path5737" fill="none" stroke="#F58020" stroke-width="3" d="M95.788,377.566l-27.189,27.189"/>
		<path id="path5739" fill="none" stroke="#F58020" stroke-width="3" d="M115.729,377.566L88.54,404.755"/>
		<path id="path5741" fill="none" stroke="#F58020" stroke-width="3" d="M138.013,377.566l-27.19,27.189"/>
		<path id="path5743" fill="none" stroke="#F58020" stroke-width="3" d="M159.66,377.566l-27.192,27.189"/>
		<path id="path5745" fill="none" stroke="#F58020" stroke-width="3" d="M158.636,400.871l-3.885,3.885"/>
		<path id="path5747" fill="none" stroke="#F58020" stroke-width="3" d="M73.392,377.572l-9.457,9.451"/>
	</g>
	<path id="path5749" fill="none" stroke="#010101" d="M63.625,377.453H161.3"/>
</g>
<g id="g5751" transform="translate(224.0108,2.6171874e-6)">
	<path id="path5753" fill="none" stroke="#010101" stroke-linecap="square" d="M792.498,312.357
		c14.627,0,26.399,12.775,26.399,28.646v35.432h-52.797v-35.432C766.102,325.134,777.875,312.357,792.498,312.357z"/>
	<g id="g5757">
		<path id="path5759" fill="none" stroke="#F58020" stroke-width="3" d="M774.933,376.566l-27.189,27.189"/>
		<path id="path5761" fill="none" stroke="#F58020" stroke-width="3" d="M794.878,376.566l-27.193,27.189"/>
		<path id="path5763" fill="none" stroke="#F58020" stroke-width="3" d="M817.158,376.566l-27.19,27.189"/>
		<path id="path5765" fill="none" stroke="#F58020" stroke-width="3" d="M838.805,376.566l-27.188,27.189"/>
		<path id="path5767" fill="none" stroke="#F58020" stroke-width="3" d="M837.783,399.871l-3.885,3.885"/>
		<path id="path5769" fill="none" stroke="#F58020" stroke-width="3" d="M752.54,376.572l-9.459,9.451"/>
	</g>
	<path id="path5771" fill="none" stroke="#010101" d="M742.773,376.453h97.671"/>
</g>
<path opacity="0.5" fill="#FF3939" stroke="#020000" d="M1015.62,354.091H278.458c-8.284,0-15-6.716-15-15s6.716-15,15-15h737.162
	c8.284,0,15,6.716,15,15S1023.904,354.091,1015.62,354.091z"/>
<path fill="#BA00FF" stroke="#020000" d="M1015.889,350.166H-106.021c-6.075,0-11-4.925-11-11s4.925-11,11-11h1121.909
	c6.075,0,11,4.925,11,11S1021.964,350.166,1015.889,350.166z"/>
<path fill="#0074FF" stroke="#020000" d="M278.458,346.591H113.112c-4.142,0-7.5-3.357-7.5-7.5c0-4.142,3.358-7.5,7.5-7.5h165.346
	c4.142,0,7.5,3.358,7.5,7.5C285.958,343.234,282.6,346.591,278.458,346.591z"/>
<path fill="#00B52F" stroke="#020000" d="M40.765,346.796h-146.785c-4.142,0-7.5-3.358-7.5-7.5s3.358-7.5,7.5-7.5H40.765
	c4.142,0,7.5,3.358,7.5,7.5S44.907,346.796,40.765,346.796z"/>
<circle fill="#FFFFFF" stroke="#231F20" stroke-miterlimit="10" cx="1016.307" cy="339.165" r="5.177"/>
<circle fill="#FFFFFF" stroke="#231F20" stroke-miterlimit="10" cx="40.55" cy="339.381" r="5.176"/>
<circle fill="#FFFFFF" stroke="#231F20" stroke-miterlimit="10" cx="112.558" cy="339.381" r="5.176"/>
<circle fill="#FFFFFF" stroke="#231F20" stroke-miterlimit="10" cx="279.833" cy="339.091" r="5.176"/>
<circle fill="#FFFFFF" stroke="#231F20" stroke-miterlimit="10" cx="1016.51" cy="339.091" r="5.176"/>
<circle fill="#FFFFFF" stroke="#231F20" stroke-miterlimit="10" cx="-106.021" cy="339.091" r="5.176"/>
<g>
	<g>
		
			<line fill="none" stroke="#FF3939" stroke-width="2" stroke-miterlimit="10" x1="294.186" y1="424.035" x2="1015.51" y2="424.035"/>
		<g>
			<polygon fill="#FF3939" points="297.104,433.951 279.833,423.98 297.104,414.007 			"/>
		</g>
		<g>
			<rect x="1014.51" y="417.535" fill="#FF3939" width="2" height="13"/>
		</g>
	</g>
</g>
<g>
	<g>
		
			<line fill="none" stroke="#0074FF" stroke-width="2" stroke-linecap="round" x1="278.833" y1="424.035" x2="132.086" y2="424.035"/>
		<g>
			<rect x="277.833" y="417.535" fill="#0074FF" width="2" height="13"/>
		</g>
		<g>
			<polygon fill="#0074FF" points="135.004,414.119 117.733,424.089 135.004,434.062 			"/>
		</g>
	</g>
</g>
<g>
	<line x1="-106.021" y1="288.035" x2="1016.51" y2="288.035"/>
	<g>
		<line fill="none" stroke="#963BFF" stroke-width="2" x1="-91.668" y1="288.035" x2="1015.51" y2="288.035"/>
		<g>
			<polygon fill="#963BFF" points="-88.75,297.951 -106.021,287.98 -88.75,278.007 			"/>
		</g>
		<g>
			<rect x="1014.51" y="281.535" fill="#963BFF" width="2" height="13"/>
		</g>
	</g>
</g>
<g>
	<g>
		
			<line fill="none" stroke="#00B52F" stroke-width="2" stroke-linecap="round" x1="26.197" y1="268.035" x2="-105.021" y2="268.035"/>
		<g>
			<polygon fill="#00B52F" points="23.279,258.119 40.55,268.089 23.279,278.062 			"/>
		</g>
		<g>
			<rect x="-106.021" y="261.535" fill="#00B52F" width="2" height="13"/>
		</g>
	</g>
</g>
<text transform="matrix(1 0 0 1 469.9795 312.3569)" fill="#963BFF" font-family="'MyriadPro-Semibold'" font-size="24">L3</text>
<text transform="matrix(1 0 0 1 -47.8291 258.1909)" fill="#00B52F" font-family="'MyriadPro-Semibold'" font-size="24">L2</text>
<text transform="matrix(1 0 0 1 633.0391 414.0347)" fill="#FF3939" font-family="'MyriadPro-Semibold'" font-size="24">L4</text>
<text transform="matrix(1 0 0 1 340.9795 414.0347)" fill="#0074FF" font-family="'MyriadPro-Semibold'" font-size="24">L1</text>
<g>
	<g>
		
			<line fill="none" stroke="#000000" stroke-width="2" stroke-miterlimit="10" x1="41.55" y1="268.035" x2="1014.889" y2="268.035"/>
		<g>
			<rect x="40.55" y="261.535" width="2" height="13"/>
		</g>
		<g>
			<rect x="1013.889" y="261.535" width="2" height="13"/>
		</g>
	</g>
</g>
<text transform="matrix(1 0 0 1 501.1162 258.1909)" font-family="'MyriadPro-Semibold'" font-size="24">L3 - L2</text>
<g>
	
		<circle fill="none" stroke="#0074FF" stroke-width="2" stroke-linecap="round" stroke-dasharray="12.1212,12.1212" cx="278.458" cy="339.091" r="165.9"/>
</g>
<g>
	<g>
		<path fill="none" stroke="#00B52F" stroke-width="2" stroke-linecap="round" d="M89.49,33.932
			c-0.625,1.898-1.244,3.799-1.858,5.702"/>
		<path fill="none" stroke="#00B52F" stroke-width="2" stroke-linecap="round" stroke-dasharray="12.2358,12.2358" d="
			M83.951,51.302c-28.073,90.987-43.187,187.66-43.187,287.863c0,99.112,14.787,194.771,42.274,284.89"/>
		<path fill="none" stroke="#00B52F" stroke-width="2" stroke-linecap="round" d="M84.84,629.893
			c0.596,1.909,1.197,3.815,1.804,5.72"/>
	</g>
</g>
</svg>
