<?xml version="1.0" encoding="utf-8"?>
<!-- Generator: Adobe Illustrator 15.1.0, SVG Export Plug-In . SVG Version: 6.00 Build 0)  -->
<!DOCTYPE svg PUBLIC "-//W3C//DTD SVG 1.1//EN" "http://www.w3.org/Graphics/SVG/1.1/DTD/svg11.dtd">
<svg version="1.1" id="Layer_1" xmlns="http://www.w3.org/2000/svg" xmlns:xlink="http://www.w3.org/1999/xlink" x="0px" y="0px"
	 width="1080.959px" height="451px" viewBox="0 115.035 1080.959 451" enable-background="new 0 115.035 1080.959 451"
	 xml:space="preserve">
<g id="g5729" transform="translate(164.10387,1.7187404e-8)">
	<path id="path5731" fill="none" stroke="#010101" stroke-linecap="square" d="M70.354,313.357
		c14.624,0,26.399,12.775,26.399,28.646v35.432H43.955v-35.432C43.954,326.134,55.727,313.357,70.354,313.357z"/>
	<g id="g5735">
		<path id="path5737" fill="none" stroke="#F58020" stroke-width="3" d="M52.788,377.566l-27.189,27.189"/>
		<path id="path5739" fill="none" stroke="#F58020" stroke-width="3" d="M72.729,377.566L45.54,404.755"/>
		<path id="path5741" fill="none" stroke="#F58020" stroke-width="3" d="M95.013,377.566l-27.19,27.189"/>
		<path id="path5743" fill="none" stroke="#F58020" stroke-width="3" d="M116.66,377.566l-27.192,27.189"/>
		<path id="path5745" fill="none" stroke="#F58020" stroke-width="3" d="M115.636,400.871l-3.885,3.885"/>
		<path id="path5747" fill="none" stroke="#F58020" stroke-width="3" d="M30.392,377.572l-9.457,9.451"/>
	</g>
	<path id="path5749" fill="none" stroke="#010101" d="M20.625,377.453H118.3"/>
</g>
<g id="g5751" transform="translate(224.0108,2.6171874e-6)">
	<path id="path5753" fill="none" stroke="#010101" stroke-linecap="square" d="M749.498,312.357
		c14.627,0,26.399,12.775,26.399,28.646v35.432h-52.797v-35.432C723.102,325.134,734.875,312.357,749.498,312.357z"/>
	<g id="g5757">
		<path id="path5759" fill="none" stroke="#F58020" stroke-width="3" d="M731.933,376.566l-27.189,27.189"/>
		<path id="path5761" fill="none" stroke="#F58020" stroke-width="3" d="M751.878,376.566l-27.193,27.189"/>
		<path id="path5763" fill="none" stroke="#F58020" stroke-width="3" d="M774.158,376.566l-27.19,27.189"/>
		<path id="path5765" fill="none" stroke="#F58020" stroke-width="3" d="M795.805,376.566l-27.188,27.189"/>
		<path id="path5767" fill="none" stroke="#F58020" stroke-width="3" d="M794.783,399.871l-3.885,3.885"/>
		<path id="path5769" fill="none" stroke="#F58020" stroke-width="3" d="M709.54,376.572l-9.459,9.451"/>
	</g>
	<path id="path5771" fill="none" stroke="#010101" d="M699.773,376.453h97.671"/>
</g>
<path opacity="0.5" fill="#FF3939" stroke="#050505" d="M972.62,354.091H235.458c-8.284,0-15-6.716-15-15s6.716-15,15-15H972.62
	c8.284,0,15,6.716,15,15S980.904,354.091,972.62,354.091z"/>
<path fill="#BA00FF" stroke="#010002" d="M972.889,350.166H762.55c-6.075,0-11-4.925-11-11s4.925-11,11-11h210.339
	c6.075,0,11,4.925,11,11S978.964,350.166,972.889,350.166z"/>
<path fill="#0074FF" stroke="#050505" d="M406.534,346.591H235.458c-4.142,0-7.5-3.357-7.5-7.5c0-4.142,3.358-7.5,7.5-7.5h171.076
	c4.142,0,7.5,3.358,7.5,7.5C414.034,343.234,410.676,346.591,406.534,346.591z"/>
<path fill="#00B52F" stroke="#020100" d="M762.55,346.666h-293.57c-4.142,0-7.5-3.357-7.5-7.5c0-4.142,3.358-7.5,7.5-7.5h293.57
	c4.143,0,7.5,3.358,7.5,7.5C770.05,343.308,766.692,346.666,762.55,346.666z"/>
<circle fill="#FFFFFF" stroke="#231F20" stroke-miterlimit="10" cx="973.307" cy="339.165" r="5.177"/>
<circle fill="#FFFFFF" stroke="#231F20" stroke-miterlimit="10" cx="762.55" cy="339.166" r="5.176"/>
<circle fill="#FFFFFF" stroke="#231F20" stroke-miterlimit="10" cx="401.358" cy="339.091" r="5.176"/>
<circle fill="#FFFFFF" stroke="#231F20" stroke-miterlimit="10" cx="236.833" cy="339.091" r="5.176"/>
<circle fill="#FFFFFF" stroke="#231F20" stroke-miterlimit="10" cx="973.51" cy="339.091" r="5.176"/>
<circle fill="#FFFFFF" stroke="#231F20" stroke-miterlimit="10" cx="469.155" cy="339.296" r="5.176"/>
<g>
	<g>
		
			<line fill="none" stroke="#FF3939" stroke-width="2" stroke-miterlimit="10" x1="251.186" y1="444.035" x2="972.51" y2="444.035"/>
		<g>
			<polygon fill="#FF3939" points="254.104,453.951 236.833,443.98 254.104,434.007 			"/>
		</g>
		<g>
			<rect x="971.51" y="437.535" fill="#FF3939" width="2" height="13"/>
		</g>
	</g>
</g>
<g>
	<g>
		
			<line fill="none" stroke="#0074FF" stroke-width="2" stroke-linecap="round" x1="237.833" y1="424.035" x2="387.006" y2="424.035"/>
		<g>
			<rect x="236.833" y="417.535" fill="#0074FF" width="2" height="13"/>
		</g>
		<g>
			<polygon fill="#0074FF" points="384.088,433.951 401.358,423.98 384.088,414.007 			"/>
		</g>
	</g>
</g>
<g>
	<line x1="762.55" y1="288.035" x2="973.51" y2="288.035"/>
	<g>
		<line fill="none" stroke="#963BFF" stroke-width="2" x1="776.902" y1="288.035" x2="972.51" y2="288.035"/>
		<g>
			<polygon fill="#963BFF" points="779.82,297.951 762.55,287.98 779.82,278.007 			"/>
		</g>
		<g>
			<rect x="971.51" y="281.535" fill="#963BFF" width="2" height="13"/>
		</g>
	</g>
</g>
<g>
	<g>
		
			<line fill="none" stroke="#00B52F" stroke-width="2" stroke-linecap="round" x1="484.684" y1="288.035" x2="762.901" y2="288.035"/>
		<g>
			<polygon fill="#00B52F" points="487.602,297.951 470.331,287.98 487.602,278.007 			"/>
		</g>
		<g>
			<rect x="761.901" y="281.535" fill="#00B52F" width="2" height="13"/>
		</g>
	</g>
</g>
<text transform="matrix(1 0 0 1 859.9795 274.0347)" fill="#963BFF" font-family="'MyriadPro-Semibold'" font-size="24">L3</text>
<text transform="matrix(1 0 0 1 605.1709 274.0347)" fill="#00B52F" font-family="'MyriadPro-Semibold'" font-size="24">L2</text>
<text transform="matrix(1 0 0 1 604.0391 473.0347)" fill="#FF3939" font-family="'MyriadPro-Semibold'" font-size="24">L4</text>
<text transform="matrix(1 0 0 1 297.9795 414.0347)" fill="#0074FF" font-family="'MyriadPro-Semibold'" font-size="24">L1</text>
<g>
	<g>
		
			<line fill="none" stroke="#000000" stroke-width="2" stroke-miterlimit="10" x1="402.358" y1="424.035" x2="971.889" y2="424.035"/>
		<g>
			<rect x="401.358" y="417.535" width="2" height="13"/>
		</g>
		<g>
			<rect x="970.889" y="417.535" width="2" height="13"/>
		</g>
	</g>
</g>
<text transform="matrix(1 0 0 1 661.1162 414.0347)" font-family="'MyriadPro-Semibold'" font-size="24">L4 - L1</text>
<path fill="none" stroke="#00B52F" stroke-width="2" stroke-linecap="round" stroke-dasharray="12" d="M563.802,633.162
	c-59.562-82.733-94.646-184.268-94.646-293.996c0-86.778,21.943-168.432,60.583-239.714"/>
<g>
	
		<circle fill="none" stroke="#0074FF" stroke-width="2" stroke-linecap="round" stroke-dasharray="12.1212,12.1212" cx="235.458" cy="339.091" r="165.9"/>
</g>
</svg>
