<?xml version="1.0" encoding="utf-8"?>
<!-- Generator: Adobe Illustrator 15.1.0, SVG Export Plug-In . SVG Version: 6.00 Build 0)  -->
<!DOCTYPE svg PUBLIC "-//W3C//DTD SVG 1.1//EN" "http://www.w3.org/Graphics/SVG/1.1/DTD/svg11.dtd">
<svg version="1.1" id="Layer_1" xmlns="http://www.w3.org/2000/svg" xmlns:xlink="http://www.w3.org/1999/xlink" x="0px" y="0px"
	 width="649.115px" height="513.729px" viewBox="0 0 649.115 513.729" enable-background="new 0 0 649.115 513.729"
	 xml:space="preserve">
<g>
	<g id="layer1" transform="translate(-43.435247,-833.53711)">
		<g id="g5729" transform="translate(164.10387,1.7187404e-8)">
			<path id="path5731" fill="none" stroke="#010101" stroke-linecap="square" d="M-45.211,1226.895
				c14.624,0,26.399,12.776,26.399,28.646v35.433H-71.61v-35.433C-71.611,1239.671-59.838,1226.895-45.211,1226.895z"/>
			<path id="path5733" fill="none" stroke="#010101" stroke-linecap="square" d="M-31.013,1252.463
				c0,7.957-6.45,14.406-14.407,14.406c-7.954,0-14.405-6.449-14.405-14.406l0,0c0-7.958,6.451-14.407,14.405-14.407
				C-37.463,1238.056-31.013,1244.505-31.013,1252.463z"/>
			<g id="g5735">
				<path id="path5737" fill="none" stroke="#F58020" stroke-width="3" d="M-62.777,1295.104l-27.189,27.189"/>
				<path id="path5739" fill="none" stroke="#F58020" stroke-width="3" d="M-42.836,1295.104l-27.189,27.189"/>
				<path id="path5741" fill="none" stroke="#F58020" stroke-width="3" d="M-20.552,1295.104l-27.19,27.189"/>
				<path id="path5743" fill="none" stroke="#F58020" stroke-width="3" d="M1.095,1295.104l-27.192,27.189"/>
				<path id="path5745" fill="none" stroke="#F58020" stroke-width="3" d="M0.071,1318.407l-3.885,3.886"/>
				<path id="path5747" fill="none" stroke="#F58020" stroke-width="3" d="M-85.173,1295.108l-9.457,9.452"/>
			</g>
			<path id="path5749" fill="none" stroke="#010101" d="M-94.94,1294.99H2.735"/>
		</g>
		<g id="g5751" transform="translate(224.0108,2.6171874e-6)">
			<path id="path5753" fill="none" stroke="#010101" stroke-linecap="square" d="M196.933,1226.895
				c14.627,0,26.399,12.776,26.399,28.646v35.433h-52.796v-35.433C170.537,1239.671,182.31,1226.895,196.933,1226.895z"/>
			<path id="path5755" fill="none" stroke="#010101" stroke-linecap="square" d="M211.132,1252.463
				c0,7.957-6.448,14.406-14.406,14.406c-7.956,0-14.407-6.449-14.407-14.406l0,0c0-7.958,6.451-14.407,14.407-14.407
				C204.684,1238.056,211.132,1244.505,211.132,1252.463z"/>
			<g id="g5757">
				<path id="path5759" fill="none" stroke="#F58020" stroke-width="3" d="M179.368,1295.104l-27.19,27.189"/>
				<path id="path5761" fill="none" stroke="#F58020" stroke-width="3" d="M199.313,1295.104l-27.193,27.189"/>
				<path id="path5763" fill="none" stroke="#F58020" stroke-width="3" d="M221.593,1295.104l-27.19,27.189"/>
				<path id="path5765" fill="none" stroke="#F58020" stroke-width="3" d="M243.24,1295.104l-27.188,27.189"/>
				<path id="path5767" fill="none" stroke="#F58020" stroke-width="3" d="M242.218,1318.407l-3.885,3.886"/>
				<path id="path5769" fill="none" stroke="#F58020" stroke-width="3" d="M156.975,1295.108l-9.459,9.452"/>
			</g>
			<path id="path5771" fill="none" stroke="#010101" d="M147.209,1294.99h97.671"/>
		</g>
		<path id="path5773" fill="none" stroke="#010101" d="M132.185,1253.629h275.034"/>
		<path id="path5801" fill="none" stroke="#010101" d="M428.456,1231.359l220.278-360.349"/>
		<path id="path5803" fill="none" stroke="#010101" stroke-linecap="square" d="M669.484,860.459
			c0.01,6.854-5.535,12.423-12.393,12.438c-6.859,0.015-12.425-5.534-12.444-12.389c0-0.02,0-0.034,0-0.049
			c-0.009-6.858,5.535-12.428,12.395-12.438c6.858-0.015,12.422,5.53,12.442,12.388
			C669.484,860.425,669.484,860.439,669.484,860.459z"/>
		<path id="path6330" fill="none" stroke="#010101" stroke-linecap="square" d="M191.441,1101.408
			c0.012,6.858-5.535,12.429-12.391,12.442c-6.856,0.01-12.425-5.535-12.44-12.394c0-0.015,0-0.03,0-0.049
			c-0.012-6.854,5.535-12.423,12.391-12.438c6.856-0.014,12.425,5.535,12.44,12.394
			C191.441,1101.379,191.441,1101.394,191.441,1101.408z"/>
		<path id="path6332" fill="none" stroke="#010101" d="M125.904,1239.616l47.72-127.4"/>
		<path id="path6334" fill="none" stroke="#010101" d="M188.93,1093.31L644.283,864"/>
		
			<text transform="matrix(1 0 0 1 356.3141 963.3154)" fill="#010101" font-family="'TimesNewRomanPS-ItalicMT'" font-size="60.5044">L</text>
		
			<text transform="matrix(1 0 0 1 389.9636 983.4634)" fill="#010101" font-family="'TimesNewRomanPS-ItalicMT'" font-size="35.2741">2</text>
		
			<text transform="matrix(1 0 0 1 525.0446 1112.2158)" fill="#010101" font-family="'TimesNewRomanPS-ItalicMT'" font-size="60.5044">L</text>
		
			<text transform="matrix(1 0 0 1 558.694 1132.3643)" fill="#010101" font-family="'TimesNewRomanPS-ItalicMT'" font-size="35.2741">3</text>
		
			<text transform="matrix(1 0 0 1 240.1271 1299.835)" fill="#010101" font-family="'TimesNewRomanPS-ItalicMT'" font-size="60.5044">L</text>
		
			<text transform="matrix(1 0 0 1 273.7761 1319.9834)" fill="#010101" font-family="'TimesNewRomanPS-ItalicMT'" font-size="35.2741">4</text>
	</g>
</g>
<text transform="matrix(1 0 0 1 57.8916 315.4609)" fill="#010101" font-family="'TimesNewRomanPS-ItalicMT'" font-size="60.5044">L</text>
<text transform="matrix(1 0 0 1 91.541 335.6094)" fill="#010101" font-family="'TimesNewRomanPS-ItalicMT'" font-size="35.2741">1</text>
<text transform="matrix(1 0 0 1 100.1157 398.5234)" fill="#00961C" font-family="'TimesNewRomanPS-ItalicMT'" font-size="46.9014">θ</text>
<text transform="matrix(1 0 0 1 123.1543 414.1416)" fill="#079647" font-family="'TimesNewRomanPS-ItalicMT'" font-size="27.3435">1</text>
<path fill="none" stroke="#00961C" stroke-width="3" stroke-miterlimit="10" stroke-dasharray="3,3" d="M158.058,418.925
	c0-34.301-20.854-63.729-50.575-76.3"/>
</svg>
