<?xml version="1.0" encoding="utf-8"?>
<!-- Generator: Adobe Illustrator 15.1.0, SVG Export Plug-In . SVG Version: 6.00 Build 0)  -->
<!DOCTYPE svg PUBLIC "-//W3C//DTD SVG 1.1//EN" "http://www.w3.org/Graphics/SVG/1.1/DTD/svg11.dtd">
<svg version="1.1" id="Layer_1" xmlns="http://www.w3.org/2000/svg" xmlns:xlink="http://www.w3.org/1999/xlink" x="0px" y="0px"
	 width="947px" height="345.724px" viewBox="177.979 98.311 947 345.724" enable-background="new 177.979 98.311 947 345.724"
	 xml:space="preserve">
<circle fill="#231F20" stroke="#FFFFFF" stroke-miterlimit="10" cx="253.45" cy="173.069" r="5.176"/>
<g id="g5729" transform="translate(164.10387,1.7187404e-8)">
	<path fill="none" stroke="#010101" stroke-linecap="square" d="M114.958,327.672c-8.125,0-14.664,7.097-14.663,15.912v19.681
		h29.327v-19.681C129.621,334.769,123.081,327.672,114.958,327.672z"/>
	<g id="g5735">
		<path id="path5737" fill="none" stroke="#F58020" stroke-width="3" d="M105.201,363.337L90.098,378.44"/>
		<path id="path5739" fill="none" stroke="#F58020" stroke-width="3" d="M116.277,363.337l-15.102,15.103"/>
		<path id="path5741" fill="none" stroke="#F58020" stroke-width="3" d="M128.654,363.337l-15.103,15.103"/>
		<path id="path5743" fill="none" stroke="#F58020" stroke-width="3" d="M140.678,363.337l-15.104,15.103"/>
		<path id="path5745" fill="none" stroke="#F58020" stroke-width="3" d="M140.11,376.282l-2.158,2.158"/>
		<path id="path5747" fill="none" stroke="#F58020" stroke-width="3" d="M92.761,363.34l-5.253,5.25"/>
	</g>
	<path id="path5749" fill="none" stroke="#010101" d="M87.336,363.275h54.254"/>
</g>
<g id="g5751" transform="translate(224.0108,2.6171874e-6)">
	<path fill="none" stroke="#010101" stroke-linecap="square" d="M792.186,324.357c-9.503,0-17.153,8.304-17.155,18.617V366h34.312
		v-23.026C809.344,332.66,801.692,324.357,792.186,324.357z"/>
	<g id="g5757">
		<path id="path5759" fill="none" stroke="#F58020" stroke-width="3" d="M780.771,366.085l-17.67,17.67"/>
		<path id="path5761" fill="none" stroke="#F58020" stroke-width="3" d="M793.733,366.085l-17.673,17.67"/>
		<path id="path5763" fill="none" stroke="#F58020" stroke-width="3" d="M808.213,366.085l-17.671,17.67"/>
		<path id="path5765" fill="none" stroke="#F58020" stroke-width="3" d="M822.28,366.085l-17.668,17.67"/>
		<path id="path5767" fill="none" stroke="#F58020" stroke-width="3" d="M821.617,381.231l-2.525,2.524"/>
		<path id="path5769" fill="none" stroke="#F58020" stroke-width="3" d="M766.219,366.089l-6.147,6.142"/>
	</g>
	<path id="path5771" fill="none" stroke="#010101" d="M759.871,366.012h63.476"/>
</g>
<path id="path6332_2_" fill="none" stroke="#0074FF" stroke-width="15" stroke-linecap="round" d="M253.597,174.012"/>
<path id="path6332_1_" fill="none" stroke="#0074FF" stroke-width="15" stroke-linecap="round" d="M278.709,340.019"/>
<circle fill="#FFFFFF" stroke="#231F20" stroke-miterlimit="10" cx="1016.307" cy="339.165" r="5.177"/>
<circle fill="#FFFFFF" stroke="#231F20" stroke-miterlimit="10" cx="278.833" cy="339.091" r="5.176"/>
<circle fill="#FFFFFF" stroke="#231F20" stroke-miterlimit="10" cx="1016.51" cy="339.091" r="5.176"/>
<g>
	<g>
		
			<line fill="none" stroke="#FF3939" stroke-width="2" stroke-miterlimit="10" x1="278.7" y1="338.164" x2="1001.024" y2="338.164"/>
		<g>
			<polygon fill="#FF3939" points="998.106,348.08 1015.377,338.109 998.106,328.137 			"/>
		</g>
	</g>
</g>
<g>
	<line x1="335.131" y1="190.656" x2="1015.377" y2="338.164"/>
	<g>
		<line fill="none" stroke="#963BFF" stroke-width="2" x1="349.157" y1="193.697" x2="1015.377" y2="338.164"/>
		<g>
			<polygon fill="#963BFF" points="349.908,204.006 335.143,190.602 354.134,184.516 			"/>
		</g>
	</g>
</g>
<text transform="matrix(1 0 0 1 647.0381 248.3569)" fill="#963BFF" font-family="'MyriadPro-Semibold'" font-size="24">L3</text>
<text transform="matrix(1 0 0 1 616.0391 331.3501)" fill="#FF3939" font-family="'MyriadPro-Semibold'" font-size="24">L4</text>
<path fill="none" stroke="#00B52F" stroke-width="3" stroke-linecap="round" stroke-dasharray="12" d="M445.386,4.467"/>
<path fill="none" stroke="#00B52F" stroke-width="3" stroke-linecap="round" stroke-dasharray="12" d="M371.682-71.669"/>
<path fill="none" stroke="#00B52F" stroke-width="3" stroke-linecap="round" stroke-dasharray="12" d="M519.09-71.669"/>
<path opacity="0.25" fill="#00B52F" d="M328.956-144.213c5.199-7.373,10.514-14.658,15.942-21.854
	C338.924-159.354,333.576-152.039,328.956-144.213z"/>
<g>
	<g>
		
			<line fill="none" stroke="#0074FF" stroke-width="2" stroke-linecap="round" x1="255.744" y1="188.203" x2="278.709" y2="340.019"/>
		<g>
			<polygon fill="#0074FF" points="246.375,192.572 253.651,174.004 266.094,189.588 			"/>
		</g>
	</g>
</g>
<g>
	<g>
		
			<line fill="none" stroke="#00B52F" stroke-width="2" stroke-linecap="round" x1="267.659" y1="176.883" x2="335.131" y2="190.656"/>
		<g>
			<polygon fill="#00B52F" points="268.535,187.182 253.607,173.958 272.524,167.642 			"/>
		</g>
	</g>
</g>
<text transform="matrix(1 0 0 1 289.6782 205.0122)" fill="#00B52F" font-family="'MyriadPro-Semibold'" font-size="24">L2</text>
<text transform="matrix(1 0 0 1 232.7676 270.3569)" fill="#0074FF" font-family="'MyriadPro-Semibold'" font-size="24">L1</text>
<g>
	<g>
		<path fill="none" stroke="#231F20" stroke-dasharray="12,12" d="M275.936,281.8c0.916-0.044,1.838-0.066,2.765-0.066
			c31.166,0,56.431,25.265,56.431,56.431"/>
		<g>
			<polygon fill="#231F20" points="279.06,285.33 277.172,281.777 278.418,277.951 269.994,282.401 			"/>
		</g>
	</g>
</g>
<g>
	<g>
		<path fill="none" stroke="#231F20" d="M959.462,320.573c0.603-1.918,1.302-3.794,2.091-5.622"/>
		<path fill="none" stroke="#231F20" stroke-dasharray="11.8626,11.8626" d="M967.326,304.61
			c10.595-15.145,28.166-25.048,48.051-25.048c28.301,0,51.916,20.061,57.401,46.738"/>
		<path fill="none" stroke="#231F20" d="M1073.677,332.171c0.2,1.971,0.303,3.97,0.303,5.993"/>
		<g>
			<polygon fill="#231F20" points="963.863,318.871 959.876,319.406 956.723,316.908 957.966,326.354 			"/>
		</g>
	</g>
</g>
<g>
	<g>
		<line fill="none" stroke="#231F20" x1="1015.377" y1="338.164" x2="1021.377" y2="338.164"/>
		<line fill="none" stroke="#231F20" stroke-dasharray="10.8447,10.8447" x1="1032.222" y1="338.164" x2="1113.558" y2="338.164"/>
		<line fill="none" stroke="#231F20" x1="1118.979" y1="338.164" x2="1124.979" y2="338.164"/>
	</g>
</g>
<text transform="matrix(1 0 0 1 1012.7822 309.9487)"><tspan x="0" y="0" fill="#963BFF" font-family="'MyriadPro-Semibold'" font-size="24">θ</tspan><tspan x="13.296" y="6" fill="#963BFF" font-family="'MyriadPro-Semibold'" font-size="14">3</tspan></text>
<text transform="matrix(1 0 0 1 287.6211 319.271)"><tspan x="0" y="0" fill="#0074FF" font-family="'MyriadPro-Semibold'" font-size="24">θ</tspan><tspan x="13.296" y="6" fill="#0074FF" font-family="'MyriadPro-Semibold'" font-size="14">1</tspan></text>
<text transform="matrix(1 0 0 1 199.6211 159.1831)"><tspan x="0" y="0" fill="#231F20" font-family="'MyriadPro-Semibold'" font-size="24">(x</tspan><tspan x="19.08" y="6" fill="#231F20" font-family="'MyriadPro-Semibold'" font-size="14">1,</tspan><tspan x="29.887" y="0" fill="#231F20" font-family="'MyriadPro-Semibold'" font-size="24">y</tspan><tspan x="41.887" y="6" fill="#231F20" font-family="'MyriadPro-Semibold'" font-size="14">1</tspan><tspan x="49.392" y="0" fill="#231F20" font-family="'MyriadPro-Semibold'" font-size="24">)</tspan></text>
<g>
	<g>
		<path fill="none" stroke="#231F20" d="M289.117,173.064c0.603-1.918,1.302-3.794,2.091-5.622"/>
		<path fill="none" stroke="#231F20" stroke-dasharray="11.8626,11.8626" d="M296.981,157.102
			c10.595-15.144,28.166-25.048,48.051-25.048c28.301,0,51.916,20.061,57.401,46.738"/>
		<path fill="none" stroke="#231F20" d="M403.332,184.663c0.2,1.971,0.303,3.97,0.303,5.993"/>
		<g>
			<polygon fill="#231F20" points="293.519,171.363 289.531,171.898 286.378,169.399 287.621,178.845 			"/>
		</g>
	</g>
</g>
<g>
	<g>
		<line fill="none" stroke="#231F20" x1="345.032" y1="190.656" x2="351.032" y2="190.656"/>
		<line fill="none" stroke="#231F20" stroke-dasharray="10.8447,10.8447" x1="361.877" y1="190.656" x2="443.213" y2="190.656"/>
		<line fill="none" stroke="#231F20" x1="448.635" y1="190.656" x2="454.635" y2="190.656"/>
	</g>
</g>
<text transform="matrix(1 0 0 1 340.7822 159.1831)"><tspan x="0" y="0" fill="#00B52F" font-family="'MyriadPro-Semibold'" font-size="24">θ</tspan><tspan x="13.296" y="6" fill="#00B52F" font-family="'MyriadPro-Semibold'" font-size="14">2</tspan></text>
</svg>
