<?xml version="1.0" encoding="utf-8"?>
<!-- Generator: Adobe Illustrator 15.1.0, SVG Export Plug-In . SVG Version: 6.00 Build 0)  -->
<!DOCTYPE svg PUBLIC "-//W3C//DTD SVG 1.1//EN" "http://www.w3.org/Graphics/SVG/1.1/DTD/svg11.dtd">
<svg version="1.1" id="Layer_1" xmlns="http://www.w3.org/2000/svg" xmlns:xlink="http://www.w3.org/1999/xlink" x="0px" y="0px"
	 width="1001.979px" height="427px" viewBox="78.979 121.035 1001.979 427" enable-background="new 78.979 121.035 1001.979 427"
	 xml:space="preserve">
<g id="g5729" transform="translate(164.10387,1.7187404e-8)">
	<path fill="none" stroke="#010101" stroke-linecap="square" d="M113.354,313.357c-14.627,0-26.4,12.777-26.399,28.646v35.432
		h52.798v-35.432C139.753,326.132,127.978,313.357,113.354,313.357z"/>
	<g id="g5735">
		<path id="path5737" fill="none" stroke="#F58020" stroke-width="3" d="M95.788,377.566l-27.189,27.189"/>
		<path id="path5739" fill="none" stroke="#F58020" stroke-width="3" d="M115.729,377.566L88.54,404.755"/>
		<path id="path5741" fill="none" stroke="#F58020" stroke-width="3" d="M138.013,377.566l-27.19,27.189"/>
		<path id="path5743" fill="none" stroke="#F58020" stroke-width="3" d="M159.66,377.566l-27.192,27.189"/>
		<path id="path5745" fill="none" stroke="#F58020" stroke-width="3" d="M158.636,400.871l-3.885,3.885"/>
		<path id="path5747" fill="none" stroke="#F58020" stroke-width="3" d="M73.392,377.572l-9.457,9.451"/>
	</g>
	<path id="path5749" fill="none" stroke="#010101" d="M63.625,377.453H161.3"/>
</g>
<g id="g5751" transform="translate(224.0108,2.6171874e-6)">
	<path fill="none" stroke="#010101" stroke-linecap="square" d="M792.498,312.357c-14.623,0-26.396,12.777-26.397,28.646v35.432
		h52.797v-35.432C818.897,325.132,807.125,312.357,792.498,312.357z"/>
	<g id="g5757">
		<path id="path5759" fill="none" stroke="#F58020" stroke-width="3" d="M774.933,376.566l-27.189,27.189"/>
		<path id="path5761" fill="none" stroke="#F58020" stroke-width="3" d="M794.878,376.566l-27.193,27.189"/>
		<path id="path5763" fill="none" stroke="#F58020" stroke-width="3" d="M817.158,376.566l-27.19,27.189"/>
		<path id="path5765" fill="none" stroke="#F58020" stroke-width="3" d="M838.805,376.566l-27.188,27.189"/>
		<path id="path5767" fill="none" stroke="#F58020" stroke-width="3" d="M837.783,399.871l-3.885,3.885"/>
		<path id="path5769" fill="none" stroke="#F58020" stroke-width="3" d="M752.54,376.572l-9.459,9.451"/>
	</g>
	<path id="path5771" fill="none" stroke="#010101" d="M742.773,376.453h97.671"/>
</g>
<path opacity="0.5" fill="#FF3939" stroke="#231F20" stroke-width="2" d="M1015.62,354.091H278.458c-8.284,0-15-6.716-15-15
	s6.716-15,15-15h737.162c8.284,0,15,6.716,15,15S1023.904,354.091,1015.62,354.091z"/>
<path fill="#BA00FF" stroke="#231F20" d="M1015.633,350.093c-0.638,0-1.284-0.056-1.935-0.171L327.537,228.168
	c-5.981-1.062-9.97-6.771-8.909-12.753c1.062-5.982,6.768-9.972,12.753-8.909l686.161,121.754c5.981,1.062,9.971,6.771,8.909,12.753
	C1025.505,346.344,1020.865,350.093,1015.633,350.093z"/>
<path id="path6332_3_" fill="none" stroke="#0074FF" stroke-width="15" stroke-linecap="round" d="M253.597,174.012"/>
<path id="path6332_2_" fill="none" stroke="#0074FF" stroke-width="15" stroke-linecap="round" d="M278.709,340.019"/>
<circle fill="#FFFFFF" stroke="#231F20" stroke-miterlimit="10" cx="1016.307" cy="339.165" r="5.177"/>
<circle fill="#FFFFFF" stroke="#231F20" stroke-miterlimit="10" cx="278.833" cy="339.091" r="5.176"/>
<circle fill="#FFFFFF" stroke="#231F20" stroke-miterlimit="10" cx="1016.51" cy="339.091" r="5.176"/>
<text transform="matrix(1 0 0 1 672.54 262.3569)" fill="#963BFF" font-family="'MyriadPro-Semibold'" font-size="24">L3</text>
<text transform="matrix(1 0 0 1 632.04 381.2974)" fill="#FF3939" font-family="'MyriadPro-Semibold'" font-size="24">L4</text>
<g>
	<g>
		<path fill="none" stroke="#BA00FF" stroke-width="3" stroke-linecap="round" d="M356.085,564.389
			c-0.646-1.891-1.284-3.785-1.914-5.684"/>
		<path fill="none" stroke="#BA00FF" stroke-width="3" stroke-linecap="round" stroke-dasharray="11.8679,11.8679" d="
			M350.53,547.411c-20.582-65.78-31.675-135.755-31.675-208.32c0-71.966,10.911-141.383,31.167-206.688"/>
		<path fill="none" stroke="#BA00FF" stroke-width="3" stroke-linecap="round" d="M351.806,126.739
			c0.609-1.905,1.226-3.806,1.851-5.704"/>
	</g>
</g>
<path fill="#00B52F" stroke="#231F20" d="M404.181,238.273c-0.44,0-0.887-0.039-1.336-0.12l-74.713-13.434
	c-4.077-0.733-6.788-4.632-6.055-8.709c0.733-4.077,4.636-6.786,8.709-6.055l74.713,13.434c4.077,0.733,6.788,4.632,6.055,8.709
	C410.901,235.727,407.741,238.273,404.181,238.273z"/>
<path opacity="0.25" fill="#00B52F" d="M328.956-144.213c5.199-7.373,10.514-14.658,15.942-21.854
	C338.924-159.354,333.576-152.039,328.956-144.213z"/>
<path fill="none" stroke="#00B52F" stroke-width="3" stroke-linecap="round" stroke-dasharray="12" d="M429.98,121.035
	c-21.009,60.813-32.419,126.103-32.419,194.057c0,82.681,16.891,161.416,47.41,232.943"/>
<circle fill="none" stroke="#0074FF" stroke-width="2" stroke-linecap="round" stroke-dasharray="12" cx="278.458" cy="339.091" r="164.559"/>
<path fill="#FFFFFF" stroke="#231F20" stroke-miterlimit="10" d="M248.716,174.708"/>
<path fill="#0074FF" stroke="#231F20" d="M278.461,346.591c-2.094,0-4.178-0.872-5.661-2.577c-2.719-3.125-2.39-7.862,0.734-10.581
	l125.131-108.886c3.124-2.72,7.861-2.391,10.581,0.734c2.719,3.125,2.39,7.862-0.734,10.581L283.381,344.75
	C281.961,345.985,280.207,346.591,278.461,346.591z"/>
<circle fill="#FFFFFF" stroke="#231F20" stroke-miterlimit="10" cx="403.589" cy="230.206" r="5.176"/>
<circle fill="#FFFFFF" stroke="#231F20" stroke-miterlimit="10" cx="329.458" cy="217.337" r="5.176"/>
<text transform="matrix(1 0 0 1 358.54 307.3569)" fill="#0074FF" font-family="'MyriadPro-Semibold'" font-size="24">L1</text>
<text transform="matrix(1 0 0 1 366.8154 189.3569)" fill="#00B52F" font-family="'MyriadPro-Semibold'" font-size="24">L2</text>
<circle fill="#FFFFFF" stroke="#231F20" stroke-miterlimit="10" cx="278.067" cy="339.262" r="5.176"/>
<line fill="none" stroke="#231F20" stroke-miterlimit="10" x1="318.855" y1="548.035" x2="350.732" y2="548.035"/>
<text transform="matrix(1 0 0 1 263.458 201.1831)"><tspan x="0" y="0" fill="#231F20" font-family="'MyriadPro-Semibold'" font-size="24">(x</tspan><tspan x="19.08" y="6" fill="#231F20" font-family="'MyriadPro-Semibold'" font-size="14">1,</tspan><tspan x="29.887" y="0" fill="#231F20" font-family="'MyriadPro-Semibold'" font-size="24">y</tspan><tspan x="41.887" y="6" fill="#231F20" font-family="'MyriadPro-Semibold'" font-size="14">1</tspan><tspan x="49.392" y="0" fill="#231F20" font-family="'MyriadPro-Semibold'" font-size="24">)</tspan></text>
</svg>
