<?xml version="1.0" encoding="utf-8"?>
<!-- Generator: Adobe Illustrator 15.1.0, SVG Export Plug-In . SVG Version: 6.00 Build 0)  -->
<!DOCTYPE svg PUBLIC "-//W3C//DTD SVG 1.1//EN" "http://www.w3.org/Graphics/SVG/1.1/DTD/svg11.dtd">
<svg version="1.1" id="Layer_1" xmlns="http://www.w3.org/2000/svg" xmlns:xlink="http://www.w3.org/1999/xlink" x="0px" y="0px"
	 width="1011.979px" height="793.694px" viewBox="68.979 -209.659 1011.979 793.694"
	 enable-background="new 68.979 -209.659 1011.979 793.694" xml:space="preserve">
<path opacity="0.5" fill="#0074FF" stroke="#231F20" d="M278.461,346.591c-2.094,0-4.178-0.872-5.661-2.577
	c-2.719-3.125-2.39-7.862,0.734-10.581l125.131-108.886c3.124-2.72,7.861-2.391,10.581,0.734c2.719,3.125,2.39,7.862-0.734,10.581
	L283.381,344.75C281.961,345.985,280.207,346.591,278.461,346.591z"/>
<path opacity="0.25" fill="#0074FF" d="M410.148,438.821c-8.318-39.602-12.703-80.652-12.703-122.728
	c0-28.822,2.061-57.161,6.027-84.886c-30.426-35.468-75.566-57.942-125.961-57.942c-7.713,0-15.302,0.533-22.735,1.553
	c-11.391,52.981-17.396,107.963-17.396,164.348c0,56.386,6.006,111.366,17.396,164.347c7.433,1.02,15.021,1.553,22.735,1.553
	C331.733,505.065,379.876,479.049,410.148,438.821z"/>
<g id="g5729" transform="translate(164.10387,1.7187404e-8)">
	<path fill="none" stroke="#010101" stroke-linecap="square" d="M113.354,313.357c-14.627,0-26.4,12.777-26.399,28.646v35.432
		h52.798v-35.432C139.753,326.132,127.978,313.357,113.354,313.357z"/>
	<g id="g5735">
		<path id="path5737" fill="none" stroke="#F58020" stroke-width="3" d="M95.788,377.566l-27.189,27.189"/>
		<path id="path5739" fill="none" stroke="#F58020" stroke-width="3" d="M115.729,377.566L88.54,404.755"/>
		<path id="path5741" fill="none" stroke="#F58020" stroke-width="3" d="M138.013,377.566l-27.19,27.189"/>
		<path id="path5743" fill="none" stroke="#F58020" stroke-width="3" d="M159.66,377.566l-27.192,27.189"/>
		<path id="path5745" fill="none" stroke="#F58020" stroke-width="3" d="M158.636,400.871l-3.885,3.885"/>
		<path id="path5747" fill="none" stroke="#F58020" stroke-width="3" d="M73.392,377.572l-9.457,9.451"/>
	</g>
	<path id="path5749" fill="none" stroke="#010101" d="M63.625,377.453H161.3"/>
</g>
<g id="g5751" transform="translate(224.0108,2.6171874e-6)">
	<path fill="none" stroke="#010101" stroke-linecap="square" d="M792.498,312.357c-14.623,0-26.396,12.777-26.397,28.646v35.432
		h52.797v-35.432C818.897,325.132,807.125,312.357,792.498,312.357z"/>
	<g id="g5757">
		<path id="path5759" fill="none" stroke="#F58020" stroke-width="3" d="M774.933,376.566l-27.189,27.189"/>
		<path id="path5761" fill="none" stroke="#F58020" stroke-width="3" d="M794.878,376.566l-27.193,27.189"/>
		<path id="path5763" fill="none" stroke="#F58020" stroke-width="3" d="M817.158,376.566l-27.19,27.189"/>
		<path id="path5765" fill="none" stroke="#F58020" stroke-width="3" d="M838.805,376.566l-27.188,27.189"/>
		<path id="path5767" fill="none" stroke="#F58020" stroke-width="3" d="M837.783,399.871l-3.885,3.885"/>
		<path id="path5769" fill="none" stroke="#F58020" stroke-width="3" d="M752.54,376.572l-9.459,9.451"/>
	</g>
	<path id="path5771" fill="none" stroke="#010101" d="M742.773,376.453h97.671"/>
</g>
<path opacity="0.5" fill="#FF3939" stroke="#231F20" d="M1015.62,354.091H278.458c-8.284,0-15-6.716-15-15s6.716-15,15-15h737.162
	c8.284,0,15,6.716,15,15S1023.904,354.091,1015.62,354.091z"/>
<path fill="#BA00FF" stroke="#231F20" d="M1015.713,349.165c-2.223,0-4.466-0.671-6.408-2.066L440.828-61.252
	c-4.934-3.544-6.061-10.417-2.517-15.352s10.416-6.062,15.352-2.517l568.476,408.351c4.935,3.544,6.062,10.417,2.517,15.352
	C1022.507,347.573,1019.135,349.165,1015.713,349.165z"/>
<path fill="#0074FF" stroke="#231F20" d="M278.7,347.52c-3.647,0-6.844-2.664-7.406-6.38l-25.113-166.006
	c-0.62-4.095,2.198-7.917,6.294-8.537c4.093-0.622,7.918,2.198,8.537,6.294l25.113,166.006c0.62,4.096-2.198,7.918-6.294,8.537
	C279.451,347.492,279.073,347.52,278.7,347.52z"/>
<circle fill="#FFFFFF" stroke="#231F20" stroke-miterlimit="10" cx="1016.307" cy="339.165" r="5.177"/>
<circle fill="#FFFFFF" stroke="#231F20" stroke-miterlimit="10" cx="278.833" cy="339.091" r="5.176"/>
<circle fill="#FFFFFF" stroke="#231F20" stroke-miterlimit="10" cx="1016.51" cy="339.091" r="5.176"/>
<g>
	<g>
		
			<line fill="none" stroke="#FF3939" stroke-width="2" stroke-miterlimit="10" x1="294.186" y1="438.035" x2="1015.51" y2="438.035"/>
		<g>
			<polygon fill="#FF3939" points="297.104,447.951 279.833,437.98 297.104,428.007 			"/>
		</g>
		<g>
			<rect x="1014.51" y="431.535" fill="#FF3939" width="2" height="13"/>
		</g>
	</g>
</g>
<g>
	<line x1="320.797" y1="284.035" x2="1016.51" y2="284.035"/>
	<g>
		<line fill="none" stroke="#963BFF" stroke-width="2" x1="335.15" y1="284.035" x2="1015.51" y2="284.035"/>
		<g>
			<polygon fill="#963BFF" points="338.068,293.951 320.797,283.98 338.068,274.007 			"/>
		</g>
		<g>
			<rect x="1014.51" y="277.535" fill="#963BFF" width="2" height="13"/>
		</g>
	</g>
</g>
<text transform="matrix(1 0 0 1 372.9697 278.3569)" fill="#963BFF" font-family="'MyriadPro-Semibold'" font-size="24">L3</text>
<text transform="matrix(1 0 0 1 358.0391 430.0347)" fill="#FF3939" font-family="'MyriadPro-Semibold'" font-size="24">L4</text>
<g>
	<g>
		
			<line fill="none" stroke="#000000" stroke-width="2" stroke-miterlimit="10" x1="399.389" y1="270.035" x2="1015.889" y2="270.035"/>
		<g>
			<rect x="398.389" y="263.535" width="2" height="13"/>
		</g>
		<g>
			<rect x="1014.889" y="263.535" width="2" height="13"/>
		</g>
	</g>
</g>
<text transform="matrix(1 0 0 1 736.1162 264.1909)" font-family="'MyriadPro-Semibold'" font-size="24">L3 - L2</text>
<g>
	<g>
		<path fill="none" stroke="#BA00FF" stroke-width="3" stroke-linecap="round" d="M356.085,564.389
			c-0.646-1.891-1.284-3.785-1.914-5.684"/>
		<path fill="none" stroke="#BA00FF" stroke-width="3" stroke-linecap="round" stroke-dasharray="12.0348,12.0348" d="
			M350.48,547.251c-20.55-65.734-31.625-135.654-31.625-208.161c0-272.074,155.941-507.725,383.321-622.451"/>
		<path fill="none" stroke="#BA00FF" stroke-width="3" stroke-linecap="round" d="M707.565-286.05
			c1.793-0.885,3.59-1.763,5.392-2.633"/>
	</g>
</g>
<path fill="#00B52F" stroke="#231F20" d="M447.239-62.686c-1.502,0-3.019-0.45-4.337-1.386l-60.289-42.823
	c-3.377-2.399-4.17-7.081-1.771-10.458c2.399-3.376,7.081-4.169,10.458-1.771l60.289,42.823c3.377,2.399,4.17,7.081,1.771,10.458
	C451.897-63.785,449.585-62.686,447.239-62.686z"/>
<circle fill="#FFFFFF" stroke="#231F20" stroke-miterlimit="10" cx="445.386" cy="-71.669" r="5.176"/>
<ellipse fill="none" stroke="#00B52F" stroke-width="3" stroke-linecap="round" stroke-dasharray="12" cx="445.386" cy="-71.669" rx="73.704" ry="76.136"/>
<path opacity="0.25" fill="#00B52F" d="M328.956-144.213c5.199-7.373,10.514-14.658,15.942-21.854
	C338.924-159.354,333.576-152.039,328.956-144.213z"/>
<path opacity="0.25" fill="#00B52F" d="M445.386-145.792c-20.906,0-39.722,9.239-52.836,23.976
	c-2.883,3.822-5.707,7.693-8.469,11.609c-6.629,11.229-10.45,24.422-10.45,38.538c0,40.937,32.126,74.123,71.755,74.123
	c39.63,0,71.756-33.186,71.756-74.123S485.016-145.792,445.386-145.792z"/>
<g>
	<g>
		
			<line fill="none" stroke="#000000" stroke-width="2" stroke-miterlimit="10" x1="239.327" y1="298.035" x2="1015.889" y2="298.035"/>
		<g>
			<rect x="238.327" y="291.535" width="2" height="13"/>
		</g>
		<g>
			<rect x="1014.889" y="291.535" width="2" height="13"/>
		</g>
	</g>
</g>
<text transform="matrix(1 0 0 1 736.1162 318.1909)" font-family="'MyriadPro-Semibold'" font-size="24">L3 + L2</text>
<g>
	<g>
		
			<line fill="none" stroke="#000000" stroke-width="2" stroke-miterlimit="10" x1="113.558" y1="461.035" x2="1015.889" y2="461.035"/>
		<g>
			<rect x="112.558" y="454.535" width="2" height="13"/>
		</g>
		<g>
			<rect x="1014.889" y="454.535" width="2" height="13"/>
		</g>
	</g>
</g>
<g>
	<g>
		
			<line fill="none" stroke="#000000" stroke-width="2" stroke-miterlimit="10" x1="445.358" y1="416.813" x2="1015.889" y2="416.813"/>
		<g>
			<rect x="444.358" y="410.313" width="2" height="13"/>
		</g>
		<g>
			<rect x="1014.889" y="410.313" width="2" height="13"/>
		</g>
	</g>
</g>
<text transform="matrix(1 0 0 1 674.8936 409.1909)" font-family="'MyriadPro-Semibold'" font-size="24">L4 - L1</text>
<text transform="matrix(1 0 0 1 674.8936 488.1909)" font-family="'MyriadPro-Semibold'" font-size="24">L4 + L1</text>
<path fill="none" stroke="#00B52F" stroke-width="3" stroke-linecap="round" stroke-dasharray="12" d="M745.987-225.967
	C540.465-132.513,397.562,74.601,397.562,315.091c0,79.271,15.526,154.917,43.704,224.061"/>
<path fill="#FFFFFF" stroke="#231F20" stroke-miterlimit="10" d="M381.817-113.372c1.056-1.48,2.122-2.954,3.188-4.427
	C383.223-117.072,381.958-115.379,381.817-113.372z"/>
<path fill="#FFFFFF" stroke="#231F20" stroke-miterlimit="10" d="M386.956-107.834c2.858,0,5.176-2.318,5.176-5.176
	c0-2.859-2.317-5.176-5.176-5.176c-0.691,0-1.348,0.141-1.951,0.387c-1.067,1.473-2.132,2.947-3.188,4.427
	c-0.009,0.122-0.037,0.238-0.037,0.362C381.78-110.152,384.098-107.834,386.956-107.834z"/>
<path fill="none" stroke="#00B52F" stroke-width="3" stroke-linecap="round" stroke-dasharray="12" d="M674.337-361.382
	C415.658-234.908,237.496,30.822,237.496,338.164c0,88.904,14.908,174.326,42.36,253.902"/>
<circle fill="none" stroke="#0074FF" stroke-width="2" stroke-linecap="round" stroke-dasharray="12" cx="278.458" cy="339.091" r="164.559"/>
<circle fill="#FFFFFF" stroke="#231F20" stroke-miterlimit="10" cx="253.892" cy="174.708" r="5.176"/>
<circle fill="#FFFFFF" stroke="#231F20" stroke-miterlimit="10" cx="403.589" cy="230.206" r="5.176"/>
<line fill="none" x1="221.979" y1="611.035" x2="462.979" y2="532.035"/>
</svg>
